<svg width="131" height="65" viewBox="0 0 131 65" fill="none" xmlns="http://www.w3.org/2000/svg">
<path d="M68.4912 57.787C68.1275 57.787 67.834 57.4913 67.834 57.1283V36.3414C67.834 35.9769 68.129 35.6827 68.4912 35.6827C68.8534 35.6827 69.1484 35.9784 69.1484 36.3414V56.4607C72.1963 56.3802 75.1536 55.7404 77.9489 54.5561C80.842 53.3293 83.4415 51.5725 85.6731 49.3356C87.9046 47.0986 89.6571 44.4943 90.8809 41.5927C92.0624 38.7907 92.7006 35.8261 92.7809 32.7708H73.109C72.7454 32.7708 72.4518 32.4751 72.4518 32.112C72.4518 31.749 72.7468 31.4533 73.109 31.4533H93.4469C93.8105 31.4533 94.1041 31.749 94.1041 32.112C94.1041 35.5772 93.4265 38.94 92.0916 42.1065C90.8021 45.1633 88.9546 47.9097 86.6034 50.2667C84.2506 52.6251 81.5123 54.4756 78.463 55.7682C75.3055 57.1078 71.9509 57.7856 68.4926 57.7856L68.4912 57.787Z" fill="#962545"/>
<path d="M89.1706 36.4498H73.1074C72.7437 36.4498 72.4502 36.1541 72.4502 35.791C72.4502 35.4279 72.7452 35.1322 73.1074 35.1322H89.1706C89.5342 35.1322 89.8278 35.4279 89.8278 35.791C89.8278 36.1541 89.5328 36.4498 89.1706 36.4498Z" fill="#962545"/>
<path d="M89.1708 39.9325H70.6103C70.2467 39.9325 69.9531 39.6368 69.9531 39.2738C69.9531 38.9107 70.2481 38.615 70.6103 38.615H89.1708C89.5345 38.615 89.828 38.9107 89.828 39.2738C89.828 39.6368 89.533 39.9325 89.1708 39.9325Z" fill="#962545"/>
<path d="M89.1708 43.4138H70.6103C70.2467 43.4138 69.9531 43.1181 69.9531 42.7551C69.9531 42.392 70.2481 42.0963 70.6103 42.0963H89.1708C89.5345 42.0963 89.828 42.392 89.828 42.7551C89.828 43.1181 89.533 43.4138 89.1708 43.4138Z" fill="#962545"/>
<path d="M89.0905 46.8966H70.6103C70.2467 46.8966 69.9531 46.6009 69.9531 46.2378C69.9531 45.8748 70.2481 45.5791 70.6103 45.5791H89.0905C89.4542 45.5791 89.7477 45.8748 89.7477 46.2378C89.7477 46.6009 89.4527 46.8966 89.0905 46.8966Z" fill="#962545"/>
<path d="M86.1536 50.3779H70.6103C70.2467 50.3779 69.9531 50.0822 69.9531 49.7191C69.9531 49.3561 70.2481 49.0604 70.6103 49.0604H86.1536C86.5173 49.0604 86.8108 49.3561 86.8108 49.7191C86.8108 50.0822 86.5158 50.3779 86.1536 50.3779Z" fill="#962545"/>
<path d="M81.9196 53.8607H78.292C77.9283 53.8607 77.6348 53.565 77.6348 53.2019C77.6348 52.8388 77.9298 52.5431 78.292 52.5431H81.9196C82.2833 52.5431 82.5768 52.8388 82.5768 53.2019C82.5768 53.565 82.2818 53.8607 81.9196 53.8607Z" fill="#962545"/>
<path d="M73.1077 37.0002H68.4898C68.2182 37.0002 67.9757 36.8333 67.8764 36.5801C67.7786 36.3268 67.8457 36.0384 68.0458 35.8554L72.6637 31.626C72.8565 31.4503 73.1339 31.4035 73.372 31.5089C73.61 31.6143 73.7648 31.85 73.7648 32.112V36.3414C73.7648 36.706 73.4698 37.0002 73.1077 37.0002ZM70.1839 35.6827H72.449V33.6068L70.1839 35.6827Z" fill="#962545"/>
<path d="M93.4449 30.2557H68.4892C68.1256 30.2557 67.832 29.96 67.832 29.597V4.58075C67.832 4.21622 68.127 3.92197 68.4892 3.92197C71.946 3.92197 75.3006 4.60125 78.4595 5.93931C81.5089 7.23199 84.2487 9.0839 86.5999 11.4409C88.9527 13.7993 90.7987 16.5443 92.0882 19.6025C93.4245 22.7676 94.1007 26.1303 94.1007 29.597C94.1007 29.9615 93.8057 30.2557 93.4435 30.2557H93.4449ZM69.1464 28.9382H92.779C92.6987 25.8829 92.0605 22.9184 90.879 20.1163C89.6551 17.2162 87.9026 14.6118 85.6711 12.3734C83.4396 10.1365 80.8415 8.37973 77.9469 7.15293C75.1517 5.96858 72.1943 5.32884 69.1464 5.24832V28.9382Z" fill="white"/>
<path d="M79.7206 30.2557C77.3343 30.2557 75.0853 29.5369 73.3853 28.2311C71.6343 26.8857 70.6689 25.0792 70.6689 23.1467C70.6689 22.7822 70.964 22.488 71.3261 22.488H88.1152C88.4788 22.488 88.7724 22.7837 88.7724 23.1467C88.7724 25.0792 87.807 26.8842 86.056 28.2311C84.356 29.5369 82.107 30.2557 79.7206 30.2557ZM72.033 23.8055C72.4711 26.6895 75.7512 28.9382 79.7206 28.9382C83.6901 28.9382 86.9702 26.6895 87.4083 23.8055H72.033Z" fill="white"/>
<path d="M88.1156 21.9917C87.8922 21.9917 87.6746 21.8775 87.5519 21.6711L79.7211 8.58762L71.8903 21.6711C71.7034 21.9829 71.3003 22.0839 70.9878 21.8965C70.6767 21.7091 70.5759 21.3051 70.7629 20.9918L79.1574 6.96554C79.2757 6.76644 79.4904 6.64494 79.7211 6.64494C79.9519 6.64494 80.1666 6.76644 80.2848 6.96554L88.6794 20.9918C88.8663 21.3036 88.7655 21.7091 88.4545 21.8965C88.3478 21.9595 88.2325 21.9902 88.1171 21.9902L88.1156 21.9917Z" fill="white"/>
<path d="M79.7209 7.96543H68.4902C68.1266 7.96543 67.833 7.66971 67.833 7.30665C67.833 6.94359 68.128 6.64787 68.4902 6.64787H79.7209C80.0845 6.64787 80.378 6.94359 80.378 7.30665C80.378 7.66971 80.083 7.96543 79.7209 7.96543Z" fill="white"/>
<path d="M55.4309 18.8544C55.1373 18.8544 54.8423 18.7651 54.6086 18.5865C52.0617 16.6453 50.6582 14.0877 50.6582 11.3867C50.6582 8.6857 52.0617 6.12815 54.6086 4.18694C55.0774 3.82973 55.7843 3.82973 56.2531 4.18694C58.8001 6.12815 60.2035 8.6857 60.2035 11.3867C60.2035 14.0877 58.8001 16.6453 56.2531 18.5865C56.018 18.7651 55.7244 18.8544 55.4309 18.8544ZM55.3944 17.5295C55.4133 17.5354 55.4484 17.5354 55.4659 17.5295C57.6726 15.8445 58.8877 13.6632 58.8877 11.3852C58.8877 9.10732 57.6726 6.92748 55.4659 5.24099C55.4469 5.23513 55.4133 5.23513 55.3944 5.24099C53.1877 6.92601 51.9726 9.10732 51.9726 11.3852C51.9726 13.6632 53.1877 15.843 55.3944 17.5295Z" fill="#E5AC66"/>
<path d="M58.3861 27.3717C57.558 27.3717 56.6978 27.2693 55.8157 27.0599C55.252 26.9267 54.8095 26.3879 54.7876 25.8082C54.6678 22.6988 55.7135 20.068 57.7332 18.4006C59.753 16.7331 62.5293 16.209 65.5509 16.9249C66.1146 17.0581 66.5571 17.5968 66.579 18.1766C66.6988 21.286 65.6531 23.9168 63.6334 25.5842C62.2036 26.7642 60.3941 27.3717 58.3861 27.3717ZM56.1326 25.7804C58.7395 26.3938 61.1054 25.9634 62.7965 24.5668C64.4877 23.1702 65.364 20.9244 65.2647 18.2425C65.2588 18.2293 65.2442 18.2117 65.2325 18.2029C62.6257 17.5895 60.2598 18.0214 58.5672 19.4166C56.876 20.8132 55.9997 23.0589 56.099 25.7409C56.1049 25.7541 56.1195 25.7716 56.1312 25.7804H56.1326Z" fill="#E5AC66"/>
<path d="M65.9806 30.2557C62.5238 30.2557 59.1692 29.5765 56.0103 28.2384C52.9609 26.9457 50.2212 25.0938 47.8699 22.7368C45.5171 20.3784 43.6712 17.6334 42.3816 14.5752C41.0453 11.4101 40.3691 8.04741 40.3691 4.58074C40.3691 4.21622 40.6641 3.92196 41.0263 3.92196H65.982C66.3457 3.92196 66.6392 4.21768 66.6392 4.58074V29.597C66.6392 29.9615 66.3442 30.2557 65.982 30.2557H65.9806ZM41.6908 5.23953C41.7711 8.29482 42.4094 11.2593 43.5908 14.0614C44.8147 16.9615 46.5672 19.5659 48.7987 21.8043C51.0302 24.0412 53.6283 25.798 56.5229 27.0248C59.3181 28.2091 62.2755 28.8489 65.3234 28.9294V5.23953H41.6908Z" fill="#E5AC66"/>
<path d="M55.4306 27.9163C55.067 27.9163 54.7734 27.6206 54.7734 27.2575V11.3882C54.7734 11.0236 55.0684 10.7294 55.4306 10.7294C55.7928 10.7294 56.0878 11.0251 56.0878 11.3882V27.2575C56.0878 27.6221 55.7928 27.9163 55.4306 27.9163Z" fill="#E5AC66"/>
<path d="M55.585 26.6939C55.3937 26.6939 55.2038 26.6105 55.0738 26.4509C54.8445 26.1684 54.8884 25.7526 55.1702 25.5242L60.1503 21.472C60.4321 21.2421 60.8469 21.286 61.0747 21.5686C61.304 21.8511 61.2602 22.2669 60.9783 22.4953L55.9983 26.5475C55.8771 26.6471 55.7296 26.6954 55.585 26.6954V26.6939Z" fill="#E5AC66"/>
<path d="M83.9155 56.7608C83.9155 56.6334 83.9243 56.5251 83.9433 56.4343C83.9622 56.3436 83.9944 56.2645 84.0397 56.1943C84.0864 56.124 84.1492 56.061 84.2295 56.0054C84.3098 55.9498 84.4121 55.8927 84.5377 55.8341L85.0079 55.6145H85.1875L85.4066 56.3026C85.4256 56.3612 85.4446 56.4095 85.465 56.449C85.484 56.4885 85.5059 56.5207 85.5307 56.5441C85.5556 56.5676 85.5833 56.5851 85.6155 56.5939C85.6476 56.6042 85.6856 56.6086 85.7279 56.6086H85.779V56.7535L85.7279 56.8047C85.6607 56.8047 85.6038 56.7989 85.5556 56.7857C85.5074 56.7725 85.4636 56.7506 85.4271 56.7184C85.3891 56.6861 85.357 56.6422 85.3292 56.5866C85.3015 56.531 85.2737 56.4607 85.246 56.3772L85.062 55.8019L84.8882 55.8795C84.8137 55.9146 84.7509 55.9468 84.6998 55.9791C84.6486 56.0113 84.6092 56.0449 84.5786 56.0801C84.5479 56.1152 84.526 56.1518 84.5128 56.1899C84.4982 56.2279 84.4924 56.2689 84.4924 56.3143C84.4924 56.5105 84.6384 56.6086 84.9305 56.6086H85.227V56.8062H84.9174C84.7392 56.8062 84.6005 56.7696 84.4997 56.6949C84.3989 56.6203 84.3493 56.5163 84.3493 56.3831C84.3493 56.2499 84.3989 56.1503 84.4968 56.0669L84.4865 56.0537L84.4121 56.0962C84.3449 56.1328 84.2909 56.1694 84.25 56.2074C84.2076 56.2455 84.1755 56.2894 84.1507 56.3377C84.1258 56.3875 84.1083 56.4461 84.0995 56.5134C84.0908 56.5807 84.0849 56.6642 84.0849 56.7608V57.787H83.9141V56.7608H83.9155Z" fill="white"/>
<path d="M85.729 56.6598L85.7801 56.6086H85.8546C85.9743 56.6086 86.0605 56.5822 86.1131 56.5295C86.1657 56.4768 86.192 56.389 86.192 56.266V55.7434H86.3526V56.266C86.3526 56.4944 86.4592 56.6086 86.671 56.6086H86.7644V56.7535L86.7133 56.8047C86.4344 56.8047 86.2694 56.7008 86.2168 56.4944H86.2036C86.1803 56.61 86.1321 56.692 86.0605 56.7359C85.989 56.7813 85.878 56.8033 85.7275 56.8033V56.6583L85.729 56.6598ZM86.0547 57.4503C86.0196 57.4503 85.9933 57.4401 85.9729 57.4196C85.9524 57.3991 85.9422 57.3669 85.9422 57.3244C85.9422 57.282 85.9524 57.2498 85.9729 57.2307C85.9933 57.2117 86.0211 57.2015 86.0547 57.2015H86.081C86.116 57.2015 86.1423 57.2117 86.1627 57.2307C86.1832 57.2498 86.1934 57.282 86.1934 57.3244C86.1934 57.3669 86.1832 57.3991 86.1627 57.4196C86.1423 57.4401 86.1145 57.4503 86.081 57.4503H86.0547ZM86.4665 57.4503C86.4315 57.4503 86.4052 57.4401 86.3847 57.4196C86.3643 57.3991 86.3541 57.3669 86.3541 57.3244C86.3541 57.282 86.3643 57.2498 86.3847 57.2307C86.4052 57.2117 86.4329 57.2015 86.4665 57.2015H86.4928C86.5264 57.2015 86.5541 57.2117 86.5746 57.2307C86.595 57.2498 86.6053 57.282 86.6053 57.3244C86.6053 57.3669 86.595 57.3991 86.5746 57.4196C86.5541 57.4401 86.5264 57.4503 86.4928 57.4503H86.4665Z" fill="white"/>
<path d="M86.7139 56.6598L86.765 56.6086H87.0483C87.1724 56.6086 87.2644 56.591 87.3214 56.5573C87.3798 56.5237 87.409 56.468 87.409 56.3934C87.409 56.3714 87.4061 56.3509 87.4003 56.3289C87.3944 56.307 87.3857 56.2836 87.3711 56.2572C87.3565 56.2309 87.3389 56.203 87.317 56.1694C87.2951 56.1357 87.2674 56.0991 87.2352 56.0566L86.8103 55.4989V55.1182L88.202 54.3848V54.5941L86.8979 55.2851V55.2983L87.5872 56.1899C87.6515 56.2733 87.7099 56.3421 87.761 56.3963C87.8121 56.4504 87.8632 56.4929 87.9143 56.5251C87.9654 56.5573 88.018 56.5793 88.0721 56.591C88.1261 56.6027 88.1889 56.6086 88.2575 56.6086V56.7535L88.2035 56.8047C88.1305 56.8047 88.0648 56.7989 88.0063 56.7872C87.9479 56.7755 87.8939 56.755 87.8442 56.7242C87.7931 56.6935 87.7449 56.6539 87.6967 56.6027C87.6485 56.5515 87.596 56.4885 87.5405 56.4109L87.4923 56.3392L87.4821 56.345C87.4835 56.3582 87.4864 56.3714 87.4864 56.386C87.4864 56.4007 87.4879 56.4153 87.4879 56.43C87.4879 56.5485 87.4499 56.6408 87.3725 56.7066C87.2951 56.7725 87.1885 56.8047 87.0498 56.8047H86.7153V56.6598H86.7139Z" fill="white"/>
<path d="M88.2051 56.6598L88.2562 56.6086H88.3365C88.4285 56.6086 88.5161 56.6042 88.5979 56.5954C88.6797 56.5866 88.7615 56.5705 88.8462 56.5485C88.9295 56.5266 89.0185 56.4944 89.1105 56.4534C89.2025 56.4124 89.3062 56.3597 89.4202 56.2953L89.7838 56.0859V56.0757L89.3296 55.9688L88.5497 55.7653V56.0464H88.3862V55.7975C88.3862 55.7331 88.4037 55.6833 88.4417 55.6467C88.4782 55.6116 88.5249 55.594 88.5804 55.594C88.5979 55.594 88.6198 55.5955 88.6461 55.5984C88.6724 55.6014 88.7148 55.6101 88.7703 55.6262L89.6465 55.8561C89.7517 55.8839 89.8422 55.9044 89.9182 55.9161C89.9941 55.9278 90.0598 55.9337 90.1168 55.9337H90.1942V56.1313H89.9693V56.2631C89.9693 56.3919 89.9941 56.4827 90.0438 56.5324C90.0934 56.5837 90.1752 56.6086 90.2891 56.6086H90.3826V56.7535L90.3315 56.8047C90.2365 56.8047 90.1577 56.7959 90.0949 56.7769C90.0321 56.7594 89.9795 56.7286 89.9401 56.6876C89.9006 56.6466 89.8714 56.5925 89.8554 56.5266C89.8378 56.4592 89.8291 56.3787 89.8291 56.2806V56.2191L89.4683 56.449C89.3413 56.528 89.2288 56.591 89.1325 56.6378C89.0346 56.6847 88.9426 56.7198 88.8564 56.7447C88.7703 56.7696 88.687 56.7857 88.6052 56.793C88.5235 56.8003 88.4358 56.8047 88.3409 56.8047H88.2095V56.6598H88.2051Z" fill="white"/>
<path d="M90.3286 56.6598L90.3797 56.6086H90.4542C90.574 56.6086 90.6601 56.5822 90.7127 56.5295C90.7653 56.4768 90.7916 56.389 90.7916 56.266V55.7434H90.9522V56.266C90.9522 56.4944 91.0588 56.6086 91.2706 56.6086H91.364V56.7535L91.3129 56.8047C91.034 56.8047 90.869 56.7008 90.8164 56.4944H90.8032C90.7799 56.61 90.7317 56.692 90.6601 56.7359C90.5886 56.7813 90.4776 56.8033 90.3271 56.8033V56.6583L90.3286 56.6598ZM90.647 55.3496C90.6119 55.3496 90.5856 55.3393 90.5652 55.3188C90.5448 55.2983 90.5345 55.2661 90.5345 55.2236C90.5345 55.1812 90.5448 55.149 90.5652 55.13C90.5856 55.1109 90.6134 55.1007 90.647 55.1007H90.6733C90.7069 55.1007 90.7346 55.1109 90.7551 55.13C90.7755 55.149 90.7857 55.1812 90.7857 55.2236C90.7857 55.2661 90.7755 55.2983 90.7551 55.3188C90.7346 55.3393 90.7069 55.3496 90.6733 55.3496H90.647ZM91.0588 55.3496C91.0238 55.3496 90.9975 55.3393 90.977 55.3188C90.9566 55.2983 90.9464 55.2661 90.9464 55.2236C90.9464 55.1812 90.9566 55.149 90.977 55.13C90.9975 55.1109 91.0252 55.1007 91.0588 55.1007H91.0851C91.1187 55.1007 91.1464 55.1109 91.1669 55.13C91.1873 55.149 91.1976 55.1812 91.1976 55.2236C91.1976 55.2661 91.1873 55.2983 91.1669 55.3188C91.1464 55.3393 91.1187 55.3496 91.0851 55.3496H91.0588Z" fill="white"/>
<path d="M91.3125 56.6598L91.3636 56.6086H91.425C91.5476 56.6086 91.6367 56.5807 91.6922 56.5251C91.7477 56.4695 91.7755 56.3816 91.7755 56.2601V54.417H91.9463V56.2601C91.9463 56.449 91.9054 56.5881 91.8222 56.6744C91.7389 56.7608 91.6075 56.8047 91.425 56.8047H91.3125V56.6598Z" fill="white"/>
<path d="M92.4688 54.417H92.6396V56.8062H92.4688V54.417Z" fill="white"/>
<path d="M93.0166 57.383H93.2488C93.5219 57.383 93.7235 57.3186 93.852 57.1883C93.9819 57.058 94.0462 56.8706 94.0462 56.6247V56.5983H94.0301C93.9878 56.6657 93.9279 56.7169 93.852 56.755C93.776 56.793 93.6899 56.8121 93.5964 56.8121C93.4241 56.8121 93.2926 56.7667 93.2006 56.6744C93.1086 56.5837 93.0619 56.4548 93.0619 56.2879C93.0619 56.1913 93.0765 56.0991 93.1042 56.0142C93.132 55.9278 93.1714 55.8532 93.2211 55.7902C93.2722 55.7273 93.3321 55.676 93.4007 55.6379C93.4708 55.5999 93.5467 55.5809 93.6314 55.5809C93.8111 55.5809 93.9527 55.6614 94.055 55.8224C94.1572 55.9834 94.2083 56.2104 94.2083 56.5002C94.2083 56.856 94.1294 57.1239 93.9732 57.3054C93.8169 57.4869 93.5745 57.5777 93.2488 57.5777H93.0166V57.3801V57.383ZM93.6446 56.6144C93.8228 56.6144 93.9571 56.569 94.0477 56.4783V56.4387C94.0477 56.3392 94.0374 56.2484 94.017 56.1679C93.9966 56.0874 93.9688 56.0171 93.9323 55.9586C93.8958 55.9 93.8505 55.8561 93.7979 55.8239C93.7454 55.7931 93.6855 55.777 93.6198 55.777C93.5599 55.777 93.5058 55.7902 93.4577 55.8136C93.4095 55.8385 93.3686 55.8722 93.3335 55.9161C93.2985 55.96 93.2722 56.0113 93.2547 56.0713C93.2371 56.1313 93.2269 56.1972 93.2269 56.2689C93.2269 56.4973 93.3467 56.613 93.5876 56.613H93.646L93.6446 56.6144Z" fill="white"/>
<path d="M96.1331 57.3215C95.8541 57.3215 95.638 57.2498 95.4847 57.1078C95.3313 56.9658 95.2539 56.7681 95.2539 56.5134C95.2539 56.4139 95.2671 56.3099 95.2948 56.1987C95.3211 56.0874 95.3591 55.9776 95.4058 55.8678L95.5504 55.9161C95.508 56.0113 95.473 56.1064 95.4467 56.203C95.4204 56.2997 95.4087 56.3904 95.4087 56.4739C95.4087 56.6759 95.4657 56.8325 95.581 56.9453C95.6964 57.0565 95.8571 57.1136 96.0659 57.1136H96.2017C96.6866 57.1136 96.929 56.897 96.929 56.4622C96.929 56.4285 96.929 56.3934 96.9261 56.3568C96.9232 56.3216 96.9202 56.2821 96.9144 56.2411C96.9086 56.1986 96.9027 56.1518 96.8954 56.0991C96.8881 56.0464 96.8779 55.9849 96.8648 55.9161L96.8166 55.6482L96.9772 55.616L97.0225 55.8839C97.0356 55.9556 97.0458 56.0186 97.0531 56.0742C97.0605 56.1298 97.0678 56.1811 97.0721 56.2265C97.078 56.2718 97.0809 56.3143 97.0838 56.3524C97.0867 56.3904 97.0867 56.427 97.0867 56.4622C97.0867 57.0346 96.7684 57.3215 96.1331 57.3215ZM96.1842 55.5618C96.1491 55.5618 96.1229 55.5516 96.1024 55.5311C96.082 55.5106 96.0717 55.4784 96.0717 55.4359C96.0717 55.3935 96.082 55.3613 96.1024 55.3422C96.1229 55.3232 96.1506 55.313 96.1842 55.313H96.2105C96.2441 55.313 96.2718 55.3232 96.2923 55.3422C96.3127 55.3613 96.3229 55.3935 96.3229 55.4359C96.3229 55.4784 96.3127 55.5106 96.2923 55.5311C96.2718 55.5516 96.2441 55.5618 96.2105 55.5618H96.1842Z" fill="white"/>
<path d="M97.3379 57.383H97.538C97.7804 57.383 97.9673 57.3347 98.0988 57.2366C98.2302 57.1385 98.3105 56.995 98.3397 56.8062H97.9177C97.7453 56.8062 97.6139 56.7608 97.5219 56.67C97.4299 56.5793 97.3832 56.4534 97.3832 56.2894C97.3832 56.1928 97.3978 56.1006 97.4255 56.0157C97.4533 55.9293 97.4927 55.8546 97.5423 55.7917C97.5935 55.7287 97.6533 55.6775 97.722 55.6394C97.7921 55.6014 97.868 55.5823 97.9527 55.5823C98.1294 55.5823 98.2667 55.6628 98.366 55.8239C98.4653 55.9849 98.5165 56.2118 98.5165 56.5017V56.5559C98.5165 56.5734 98.5165 56.591 98.5135 56.6071H98.6713V56.752L98.6201 56.8033H98.4945C98.4522 57.0565 98.3514 57.2498 98.1952 57.3815C98.0389 57.5133 97.8198 57.5792 97.538 57.5792H97.3379V57.3815V57.383ZM97.5467 56.2689C97.5467 56.4944 97.6665 56.6086 97.9075 56.6086H98.3543V56.4373C98.3543 56.3377 98.3441 56.2484 98.3251 56.1679C98.3062 56.0874 98.2784 56.0171 98.2434 55.96C98.2083 55.9029 98.1645 55.8575 98.1134 55.8253C98.0623 55.7946 98.0038 55.7785 97.9396 55.7785C97.8797 55.7785 97.8257 55.7902 97.7775 55.8151C97.7293 55.84 97.6884 55.8737 97.6533 55.9161C97.6183 55.9586 97.592 56.0113 97.5745 56.0713C97.557 56.1313 97.5467 56.1972 97.5467 56.2689Z" fill="white"/>
<path d="M98.6206 56.6598L98.6717 56.6086H98.733C98.8849 56.6086 98.9959 56.5837 99.066 56.5339C99.1361 56.4841 99.1712 56.4007 99.1712 56.2821C99.1712 56.2396 99.1683 56.1855 99.161 56.1211C99.1551 56.0566 99.1434 55.9732 99.1288 55.8722L99.0865 55.6145L99.2471 55.5882L99.2851 55.8458C99.2997 55.9454 99.3114 56.0288 99.3172 56.0976C99.3231 56.1664 99.3274 56.2265 99.3274 56.2777C99.3274 56.6291 99.1288 56.8033 98.7316 56.8033H98.6191V56.6583L98.6206 56.6598ZM99.1098 55.1973C99.0748 55.1973 99.0485 55.1871 99.0281 55.1666C99.0076 55.1461 98.9974 55.1139 98.9974 55.0714C98.9974 55.0289 99.0076 54.9967 99.0281 54.9777C99.0485 54.9587 99.0763 54.9484 99.1098 54.9484H99.1361C99.1712 54.9484 99.1975 54.9587 99.2179 54.9777C99.2384 54.9967 99.2486 55.0289 99.2486 55.0714C99.2486 55.1139 99.2384 55.1461 99.2179 55.1666C99.1975 55.1871 99.1697 55.1973 99.1361 55.1973H99.1098Z" fill="white"/>
<path d="M100.275 56.8062C100.175 56.8062 100.094 56.7974 100.026 56.7798C99.9593 56.7623 99.9053 56.7345 99.8644 56.6949C99.822 56.6554 99.7928 56.6027 99.7738 56.5383C99.7563 56.4739 99.7461 56.3948 99.7461 56.3026V54.417H99.917V56.3026C99.917 56.4168 99.9418 56.4958 99.9914 56.5412C100.041 56.5866 100.123 56.6086 100.237 56.6086H100.381V56.7535L100.33 56.8047H100.275V56.8062Z" fill="white"/>
<path d="M100.331 56.6598L100.382 56.6086C100.479 56.6086 100.568 56.6056 100.649 56.5983C100.731 56.5925 100.817 56.5807 100.906 56.5632L100.909 56.55C100.785 56.4666 100.689 56.3699 100.62 56.2616C100.552 56.1533 100.517 56.0303 100.517 55.8927C100.517 55.8048 100.531 55.7229 100.559 55.6453C100.587 55.5691 100.626 55.5018 100.676 55.4447C100.727 55.3876 100.787 55.3422 100.855 55.3086C100.925 55.2749 101.001 55.2588 101.082 55.2588C101.162 55.2588 101.238 55.2749 101.307 55.3086C101.375 55.3422 101.435 55.3876 101.485 55.4447C101.536 55.5018 101.574 55.5691 101.602 55.6453C101.629 55.7214 101.644 55.8034 101.644 55.8927C101.644 56.0303 101.61 56.1533 101.543 56.2616C101.476 56.3699 101.38 56.4666 101.255 56.55L101.258 56.5632C101.34 56.5778 101.423 56.5895 101.51 56.5968C101.596 56.6042 101.686 56.6086 101.783 56.6086V56.7535L101.732 56.8047H101.694C101.464 56.8047 101.26 56.755 101.082 56.6569C100.982 56.7081 100.883 56.7462 100.782 56.7696C100.682 56.793 100.569 56.8047 100.448 56.8047H100.328V56.6598H100.331ZM101.085 56.4885C101.207 56.4197 101.305 56.3377 101.378 56.2411C101.451 56.1459 101.488 56.0347 101.488 55.9102C101.488 55.7741 101.453 55.6643 101.383 55.5809C101.312 55.4974 101.22 55.455 101.107 55.455H101.061C100.947 55.455 100.855 55.4974 100.784 55.5809C100.712 55.6643 100.677 55.7741 100.677 55.9102C100.677 56.0376 100.714 56.1489 100.788 56.244C100.863 56.3392 100.96 56.4212 101.083 56.487L101.085 56.4885ZM100.86 54.865C100.825 54.865 100.798 54.8547 100.778 54.8342C100.757 54.8137 100.747 54.7815 100.747 54.7391C100.747 54.6966 100.757 54.6644 100.778 54.6454C100.798 54.6264 100.826 54.6161 100.86 54.6161H100.886C100.92 54.6161 100.947 54.6264 100.968 54.6454C100.988 54.6644 100.998 54.6966 100.998 54.7391C100.998 54.7815 100.988 54.8137 100.968 54.8342C100.947 54.8547 100.92 54.865 100.886 54.865H100.86ZM101.272 54.865C101.237 54.865 101.21 54.8547 101.19 54.8342C101.169 54.8137 101.159 54.7815 101.159 54.7391C101.159 54.6966 101.169 54.6644 101.19 54.6454C101.21 54.6264 101.238 54.6161 101.272 54.6161H101.298C101.331 54.6161 101.359 54.6264 101.38 54.6454C101.4 54.6644 101.41 54.6966 101.41 54.7391C101.41 54.7815 101.4 54.8137 101.38 54.8342C101.359 54.8547 101.331 54.865 101.298 54.865H101.272Z" fill="white"/>
<path d="M101.734 56.6598L101.785 56.6086H101.847C101.97 56.6086 102.059 56.5807 102.114 56.5251C102.17 56.4695 102.197 56.3816 102.197 56.2601V54.417H102.368V56.2601C102.368 56.449 102.327 56.5881 102.244 56.6744C102.161 56.7608 102.029 56.8047 101.847 56.8047H101.734V56.6598Z" fill="white"/>
<path d="M102.891 54.417H103.061V56.8062H102.891V54.417Z" fill="white"/>
<path d="M103.438 57.383H103.671C103.944 57.383 104.145 57.3186 104.274 57.1883C104.404 57.058 104.468 56.8706 104.468 56.6247V56.5983H104.452C104.41 56.6657 104.35 56.7169 104.274 56.755C104.198 56.793 104.112 56.8121 104.018 56.8121C103.846 56.8121 103.714 56.7667 103.622 56.6744C103.53 56.5837 103.484 56.4548 103.484 56.2879C103.484 56.1913 103.498 56.0991 103.526 56.0142C103.554 55.9278 103.593 55.8532 103.643 55.7902C103.694 55.7273 103.754 55.676 103.823 55.6379C103.893 55.5999 103.969 55.5809 104.053 55.5809C104.233 55.5809 104.375 55.6614 104.477 55.8224C104.579 55.9834 104.63 56.2104 104.63 56.5002C104.63 56.856 104.551 57.1239 104.395 57.3054C104.239 57.4869 103.996 57.5777 103.671 57.5777H103.438V57.3801V57.383ZM104.066 56.6144C104.245 56.6144 104.379 56.569 104.47 56.4783V56.4387C104.47 56.3392 104.459 56.2484 104.439 56.1679C104.418 56.0874 104.391 56.0171 104.354 55.9586C104.318 55.9 104.272 55.8561 104.22 55.8239C104.167 55.7931 104.107 55.777 104.042 55.777C103.982 55.777 103.928 55.7902 103.88 55.8136C103.831 55.8385 103.79 55.8722 103.755 55.9161C103.72 55.96 103.694 56.0113 103.677 56.0713C103.658 56.1313 103.649 56.1972 103.649 56.2689C103.649 56.4973 103.769 56.613 104.009 56.613H104.068L104.066 56.6144Z" fill="white"/>
<path d="M106.878 56.8443C106.655 56.8443 106.468 56.8325 106.316 56.8091C106.164 56.7857 106.041 56.7476 105.948 56.6964C105.853 56.6452 105.786 56.5764 105.745 56.4914C105.704 56.4065 105.684 56.3026 105.684 56.1796C105.684 56.0889 105.695 55.9996 105.717 55.9088C105.739 55.818 105.774 55.7199 105.822 55.6145L105.967 55.6628C105.92 55.7595 105.885 55.8473 105.863 55.9278C105.841 56.0069 105.831 56.0845 105.831 56.1606C105.831 56.2426 105.847 56.3128 105.881 56.3714C105.914 56.43 105.965 56.4783 106.037 56.5149C106.109 56.5515 106.199 56.5778 106.31 56.5954C106.421 56.613 106.555 56.6217 106.713 56.6217H107.039C107.208 56.6217 107.35 56.6159 107.462 56.6042C107.575 56.5925 107.665 56.572 107.733 56.5441C107.8 56.5163 107.848 56.4783 107.876 56.4314C107.903 56.3846 107.918 56.3246 107.918 56.2543C107.918 56.2177 107.917 56.1723 107.912 56.1167C107.908 56.0625 107.898 55.9805 107.88 55.8736L107.835 55.616L107.998 55.5896L108.036 55.8473C108.051 55.9556 108.061 56.0376 108.067 56.0976C108.073 56.1562 108.074 56.2074 108.074 56.2513C108.074 56.3611 108.054 56.4534 108.012 56.5295C107.969 56.6042 107.902 56.6657 107.809 56.714C107.715 56.7608 107.592 56.7959 107.438 56.815C107.284 56.8355 107.097 56.8457 106.875 56.8457L106.878 56.8443ZM106.653 55.6043C106.618 55.6043 106.592 55.594 106.572 55.5735C106.551 55.553 106.541 55.5208 106.541 55.4784C106.541 55.4359 106.551 55.4037 106.572 55.3847C106.592 55.3657 106.62 55.3554 106.653 55.3554H106.68C106.715 55.3554 106.741 55.3657 106.761 55.3847C106.782 55.4037 106.792 55.4359 106.792 55.4784C106.792 55.5208 106.782 55.553 106.761 55.5735C106.741 55.594 106.713 55.6043 106.68 55.6043H106.653ZM107.065 55.6043C107.03 55.6043 107.004 55.594 106.983 55.5735C106.963 55.553 106.953 55.5208 106.953 55.4784C106.953 55.4359 106.963 55.4037 106.983 55.3847C107.004 55.3657 107.032 55.3554 107.065 55.3554H107.091C107.126 55.3554 107.153 55.3657 107.173 55.3847C107.194 55.4037 107.204 55.4359 107.204 55.4784C107.204 55.5208 107.194 55.553 107.173 55.5735C107.153 55.594 107.125 55.6043 107.091 55.6043H107.065Z" fill="white"/>
<path d="M109.022 56.8062C108.923 56.8062 108.841 56.7974 108.774 56.7798C108.706 56.7623 108.652 56.7345 108.611 56.6949C108.569 56.6554 108.54 56.6027 108.521 56.5383C108.503 56.4739 108.493 56.3948 108.493 56.3026V54.417H108.664V56.3026C108.664 56.4168 108.689 56.4958 108.739 56.5412C108.788 56.5866 108.87 56.6086 108.984 56.6086H109.128V56.7535L109.077 56.8047H109.023L109.022 56.8062Z" fill="white"/>
<path d="M109.078 56.6598L109.129 56.6086H109.209C109.256 56.6086 109.298 56.6042 109.335 56.5954C109.371 56.5866 109.405 56.572 109.434 56.5515C109.465 56.531 109.491 56.5031 109.516 56.468C109.541 56.4329 109.565 56.389 109.592 56.3377L109.763 56.0025L109.894 56.0698L109.717 56.4153C109.713 56.4256 109.709 56.4358 109.703 56.4446C109.697 56.4534 109.691 56.4636 109.685 56.4739L109.76 56.5193C109.833 56.5661 109.903 56.5998 109.97 56.6188C110.037 56.6378 110.106 56.6481 110.174 56.6481C110.29 56.6481 110.374 56.6203 110.429 56.5661C110.483 56.5119 110.509 56.4153 110.509 56.2806V56.0025H110.669V56.2806C110.669 56.408 110.69 56.5002 110.732 56.5602C110.775 56.6188 110.842 56.6496 110.934 56.6496H110.985C111.059 56.6496 111.119 56.6276 111.16 56.5822C111.203 56.5368 111.223 56.4666 111.223 56.3685C111.223 56.3319 111.222 56.285 111.217 56.2294C111.213 56.1738 111.207 56.1137 111.198 56.0523L111.172 55.878L111.333 55.859L111.354 56.0274C111.363 56.0918 111.369 56.1547 111.373 56.2148C111.378 56.2748 111.379 56.326 111.379 56.3699C111.379 56.5251 111.341 56.6437 111.267 56.7257C111.191 56.8077 111.089 56.8486 110.957 56.8486C110.837 56.8486 110.743 56.8223 110.672 56.7681C110.602 56.714 110.557 56.6364 110.535 56.5324H110.519C110.497 56.6408 110.455 56.7198 110.391 56.7711C110.326 56.8223 110.243 56.8486 110.139 56.8486C109.995 56.8486 109.846 56.7974 109.688 56.6964L109.579 56.6291C109.519 56.6979 109.45 56.7447 109.373 56.7711C109.295 56.7974 109.196 56.8091 109.073 56.8091V56.6642L109.078 56.6598Z" fill="white"/>
<path d="M111.788 54.417H111.959V56.8062H111.788V54.417Z" fill="white"/>
<path d="M112.014 57.383H112.118C112.242 57.383 112.347 57.3654 112.432 57.3303C112.517 57.2952 112.584 57.2454 112.633 57.1839C112.683 57.1209 112.718 57.0477 112.74 56.9628C112.762 56.8779 112.772 56.7857 112.772 56.6862C112.772 56.6261 112.769 56.5602 112.763 56.4914C112.758 56.4212 112.75 56.3568 112.739 56.2967L112.671 55.9059L112.835 55.8736L112.883 56.1928C112.898 56.2762 112.909 56.3611 112.917 56.4461C112.924 56.531 112.928 56.6129 112.928 56.6891C112.928 56.8135 112.914 56.9306 112.886 57.039C112.858 57.1473 112.813 57.2425 112.749 57.3215C112.686 57.4006 112.603 57.4635 112.499 57.5104C112.395 57.5572 112.268 57.5792 112.116 57.5792H112.013V57.3815L112.014 57.383Z" fill="white"/>
<path d="M113.626 55.0202C113.57 55.0202 113.527 54.9997 113.494 54.9601C113.462 54.9206 113.446 54.865 113.446 54.7932V54.6029H113.569V54.7581C113.569 54.8313 113.6 54.8679 113.66 54.8679C113.737 54.8679 113.775 54.8108 113.775 54.6966V54.5166H113.898V54.6205C113.898 54.72 113.931 54.7684 114.001 54.7684C114.071 54.7684 114.105 54.7259 114.105 54.6395C114.105 54.5839 114.092 54.518 114.067 54.4419L114.187 54.4068C114.2 54.4448 114.21 54.4843 114.217 54.5209C114.225 54.559 114.229 54.5941 114.229 54.6293C114.229 54.7215 114.21 54.7932 114.171 54.8445C114.133 54.8957 114.076 54.9206 114 54.9206C113.957 54.9206 113.921 54.9074 113.892 54.8796C113.862 54.8533 113.844 54.8181 113.832 54.7742H113.822C113.817 54.8489 113.798 54.9089 113.765 54.9528C113.731 54.9967 113.686 55.0187 113.627 55.0187L113.626 55.0202Z" fill="white"/>
<path d="M113.37 56.8062C113.31 56.8062 113.261 56.7886 113.225 56.755C113.188 56.7213 113.171 56.67 113.171 56.6027V56.3538H113.332V56.6086H113.905C114.028 56.6086 114.114 56.5954 114.163 56.5705C114.212 56.5441 114.237 56.5017 114.237 56.4417C114.237 56.4109 114.233 56.3802 114.224 56.348C114.215 56.3158 114.199 56.2645 114.176 56.1957L113.847 55.2822L114.015 55.2207L114.357 56.1796C114.387 56.266 114.415 56.3363 114.44 56.3904C114.466 56.4446 114.493 56.4885 114.519 56.5207C114.545 56.5529 114.574 56.5749 114.604 56.5881C114.634 56.6012 114.669 56.6071 114.71 56.6071H114.772V56.752L114.72 56.8033C114.612 56.8033 114.529 56.7828 114.469 56.7403C114.409 56.6979 114.355 56.6232 114.309 56.5134H114.292C114.284 56.6144 114.247 56.6876 114.184 56.7345C114.122 56.7813 114.028 56.8033 113.905 56.8033H113.371L113.37 56.8062Z" fill="white"/>
<path d="M114.719 56.6598L114.77 56.6086H114.831C114.954 56.6086 115.043 56.5807 115.098 56.5251C115.154 56.4695 115.182 56.3816 115.182 56.2601V54.417H115.353V56.2601C115.353 56.449 115.312 56.5881 115.228 56.6744C115.145 56.7623 115.014 56.8047 114.831 56.8047H114.719V56.6598Z" fill="white"/>
<path d="M115.875 54.417H116.046V56.8062H115.875V54.417Z" fill="white"/>
<path d="M116.423 57.383H116.655C116.928 57.383 117.128 57.3186 117.258 57.1883C117.388 57.058 117.452 56.8706 117.452 56.6247V56.5983H117.436C117.394 56.6657 117.334 56.7169 117.258 56.755C117.182 56.793 117.096 56.8121 117.003 56.8121C116.83 56.8121 116.699 56.7667 116.607 56.6744C116.515 56.5837 116.468 56.4548 116.468 56.2879C116.468 56.1913 116.483 56.0991 116.51 56.0142C116.538 55.9278 116.578 55.8532 116.627 55.7902C116.678 55.7273 116.738 55.676 116.807 55.6379C116.877 55.5999 116.953 55.5809 117.038 55.5809C117.217 55.5809 117.359 55.6614 117.461 55.8224C117.563 55.9834 117.615 56.2104 117.615 56.5002C117.615 56.856 117.536 57.1239 117.379 57.3054C117.223 57.4869 116.981 57.5777 116.655 57.5777H116.423V57.3801V57.383ZM117.051 56.6144C117.229 56.6144 117.363 56.569 117.454 56.4783V56.4387C117.454 56.3392 117.444 56.2484 117.423 56.1679C117.403 56.0874 117.375 56.0171 117.339 55.9586C117.302 55.9 117.257 55.8561 117.204 55.8239C117.152 55.7931 117.092 55.777 117.026 55.777C116.966 55.777 116.912 55.7902 116.864 55.8136C116.816 55.8385 116.775 55.8722 116.74 55.9161C116.705 55.96 116.678 56.0113 116.661 56.0713C116.643 56.1313 116.633 56.1972 116.633 56.2689C116.633 56.4973 116.753 56.613 116.994 56.613H117.052L117.051 56.6144Z" fill="white"/>
<path d="M119.954 56.8062C119.858 56.8062 119.776 56.7974 119.712 56.7813C119.646 56.7652 119.592 56.7389 119.551 56.7008C119.509 56.6627 119.48 56.6144 119.461 56.5559C119.443 56.4973 119.433 56.4226 119.433 56.3348V56.2733H119.42C119.389 56.3597 119.34 56.4256 119.269 56.4724C119.199 56.5193 119.115 56.5412 119.014 56.5412C118.878 56.5412 118.773 56.5046 118.698 56.4314C118.624 56.3582 118.586 56.2557 118.586 56.1255C118.586 56.0654 118.595 56.0098 118.614 55.9615C118.631 55.9117 118.66 55.8634 118.7 55.818C118.739 55.7712 118.792 55.7258 118.856 55.6789C118.92 55.6321 118.999 55.5823 119.091 55.5282L119.42 55.3408V55.1402H119.58V56.3158C119.58 56.4256 119.607 56.5017 119.659 56.5456C119.712 56.5881 119.791 56.61 119.896 56.61H120.005V56.755L119.954 56.8062ZM119.04 56.345C119.176 56.345 119.272 56.3216 119.332 56.2748C119.391 56.2279 119.421 56.1489 119.421 56.0362V55.5238L119.119 55.6921C119.052 55.7287 118.995 55.7639 118.948 55.7961C118.901 55.8283 118.863 55.8605 118.834 55.8927C118.805 55.9249 118.783 55.9586 118.77 55.9937C118.755 56.0288 118.75 56.0654 118.75 56.1064C118.75 56.2645 118.847 56.3436 119.043 56.3436L119.04 56.345ZM119.131 54.8211C119.096 54.8211 119.069 54.8108 119.049 54.7903C119.028 54.7698 119.018 54.7376 119.018 54.6952C119.018 54.6527 119.028 54.6205 119.049 54.6015C119.069 54.5824 119.097 54.5722 119.131 54.5722H119.157C119.192 54.5722 119.218 54.5824 119.239 54.6015C119.259 54.6205 119.269 54.6527 119.269 54.6952C119.269 54.7376 119.259 54.7698 119.239 54.7903C119.218 54.8108 119.191 54.8211 119.157 54.8211H119.131ZM119.543 54.8211C119.507 54.8211 119.481 54.8108 119.461 54.7903C119.44 54.7698 119.43 54.7376 119.43 54.6952C119.43 54.6527 119.44 54.6205 119.461 54.6015C119.481 54.5824 119.509 54.5722 119.543 54.5722H119.569C119.604 54.5722 119.63 54.5824 119.651 54.6015C119.671 54.6205 119.681 54.6527 119.681 54.6952C119.681 54.7376 119.671 54.7698 119.651 54.7903C119.63 54.8108 119.602 54.8211 119.569 54.8211H119.543Z" fill="white"/>
<path d="M119.955 56.6598L120.006 56.6086H120.08C120.2 56.6086 120.286 56.5822 120.339 56.5295C120.391 56.4768 120.418 56.389 120.418 56.266V55.7434H120.578V56.266C120.578 56.4944 120.685 56.6086 120.897 56.6086H120.99V56.7535L120.939 56.8047C120.66 56.8047 120.495 56.7008 120.442 56.4944H120.429C120.406 56.61 120.358 56.692 120.286 56.7359C120.215 56.7813 120.104 56.8033 119.953 56.8033V56.6583L119.955 56.6598ZM120.28 57.4503C120.245 57.4503 120.219 57.4401 120.198 57.4196C120.178 57.3991 120.168 57.3669 120.168 57.3244C120.168 57.282 120.178 57.2498 120.198 57.2307C120.219 57.2117 120.247 57.2015 120.28 57.2015H120.307C120.342 57.2015 120.368 57.2117 120.388 57.2307C120.409 57.2498 120.419 57.282 120.419 57.3244C120.419 57.3669 120.409 57.3991 120.388 57.4196C120.368 57.4401 120.34 57.4503 120.307 57.4503H120.28ZM120.692 57.4503C120.657 57.4503 120.631 57.4401 120.61 57.4196C120.59 57.3991 120.58 57.3669 120.58 57.3244C120.58 57.282 120.59 57.2498 120.61 57.2307C120.631 57.2117 120.659 57.2015 120.692 57.2015H120.718C120.752 57.2015 120.78 57.2117 120.8 57.2307C120.821 57.2498 120.831 57.282 120.831 57.3244C120.831 57.3669 120.821 57.3991 120.8 57.4196C120.78 57.4401 120.752 57.4503 120.718 57.4503H120.692Z" fill="white"/>
<path d="M120.94 56.6598L120.992 56.6086C121.066 56.6086 121.129 56.6027 121.177 56.5895C121.225 56.5763 121.265 56.5588 121.294 56.5354C121.268 56.4768 121.256 56.4095 121.256 56.3319C121.256 56.2089 121.294 56.0991 121.368 56.0025C121.443 55.9059 121.563 55.8122 121.726 55.7214L121.923 55.6145H122.107L122.326 56.3026C122.345 56.3612 122.364 56.4095 122.385 56.449C122.404 56.4885 122.426 56.5207 122.451 56.5441C122.475 56.5676 122.503 56.5851 122.535 56.5939C122.567 56.6042 122.605 56.6086 122.648 56.6086H122.699V56.7535L122.648 56.8047C122.579 56.8047 122.521 56.7974 122.471 56.7842C122.421 56.7696 122.377 56.7462 122.341 56.7125C122.303 56.6788 122.269 56.6349 122.242 56.5778C122.212 56.5222 122.185 56.4505 122.16 56.3641L121.976 55.78L121.808 55.8707C121.688 55.9351 121.592 56.001 121.52 56.0698C121.449 56.1386 121.412 56.2191 121.412 56.3128C121.412 56.509 121.557 56.6071 121.847 56.6071H122.157V56.8047H121.839C121.593 56.8047 121.427 56.7388 121.336 56.6071H121.323C121.288 56.6715 121.241 56.7213 121.18 56.7535C121.119 56.7872 121.04 56.8033 120.943 56.8033V56.6583L120.94 56.6598Z" fill="white"/>
<path d="M122.647 56.6598L122.699 56.6086H122.773C122.893 56.6086 122.979 56.5822 123.033 56.5295C123.086 56.4768 123.112 56.389 123.112 56.266V55.7434H123.273V56.266C123.273 56.4944 123.379 56.6086 123.591 56.6086H123.684V56.7535L123.633 56.8047C123.354 56.8047 123.189 56.7008 123.137 56.4944H123.124C123.1 56.61 123.052 56.692 122.98 56.7359C122.909 56.7813 122.798 56.8033 122.647 56.8033V56.6583V56.6598ZM123.179 55.3496C123.144 55.3496 123.118 55.3393 123.097 55.3188C123.077 55.2983 123.067 55.2661 123.067 55.2236C123.067 55.1812 123.077 55.149 123.097 55.13C123.118 55.1109 123.145 55.1007 123.179 55.1007H123.205C123.24 55.1007 123.267 55.1109 123.287 55.13C123.308 55.149 123.318 55.1812 123.318 55.2236C123.318 55.2661 123.308 55.2983 123.287 55.3188C123.267 55.3393 123.239 55.3496 123.205 55.3496H123.179Z" fill="white"/>
<path d="M123.93 54.8694C123.874 54.8694 123.83 54.8489 123.798 54.8093C123.766 54.7698 123.75 54.7142 123.75 54.6425V54.4521H123.873V54.6073C123.873 54.6805 123.903 54.7171 123.963 54.7171C124.041 54.7171 124.079 54.66 124.079 54.5458V54.3658H124.201V54.4697C124.201 54.5693 124.235 54.6176 124.305 54.6176C124.375 54.6176 124.409 54.5751 124.409 54.4887C124.409 54.4331 124.396 54.3672 124.371 54.2911L124.49 54.256C124.504 54.294 124.514 54.3336 124.521 54.3702C124.528 54.4082 124.533 54.4434 124.533 54.4785C124.533 54.5707 124.514 54.6425 124.474 54.6937C124.436 54.7449 124.379 54.7698 124.304 54.7698C124.261 54.7698 124.225 54.7566 124.195 54.7288C124.166 54.7025 124.147 54.6673 124.136 54.6234H124.125C124.121 54.6981 124.102 54.7581 124.068 54.802C124.035 54.8459 123.99 54.8679 123.931 54.8679L123.93 54.8694Z" fill="white"/>
<path d="M123.633 56.6598L123.684 56.6086H123.759C123.879 56.6086 123.965 56.5822 124.017 56.5295C124.07 56.4768 124.096 56.389 124.096 56.266V55.7434H124.257V56.266C124.257 56.4944 124.364 56.6086 124.575 56.6086H124.669V56.7535L124.618 56.8047C124.339 56.8047 124.174 56.7008 124.121 56.4944H124.108C124.085 56.61 124.036 56.692 123.965 56.7359C123.893 56.7813 123.782 56.8033 123.632 56.8033V56.6583L123.633 56.6598ZM123.952 55.3496C123.917 55.3496 123.89 55.3393 123.87 55.3188C123.849 55.2983 123.839 55.2661 123.839 55.2236C123.839 55.1812 123.849 55.149 123.87 55.13C123.89 55.1109 123.918 55.1007 123.952 55.1007H123.978C124.013 55.1007 124.039 55.1109 124.06 55.13C124.08 55.149 124.09 55.1812 124.09 55.2236C124.09 55.2661 124.08 55.2983 124.06 55.3188C124.039 55.3393 124.012 55.3496 123.978 55.3496H123.952ZM124.364 55.3496C124.33 55.3496 124.302 55.3393 124.282 55.3188C124.261 55.2983 124.251 55.2661 124.251 55.2236C124.251 55.1812 124.261 55.149 124.282 55.13C124.302 55.1109 124.33 55.1007 124.364 55.1007H124.39C124.425 55.1007 124.451 55.1109 124.472 55.13C124.492 55.149 124.502 55.1812 124.502 55.2236C124.502 55.2661 124.492 55.2983 124.472 55.3188C124.451 55.3393 124.423 55.3496 124.39 55.3496H124.364Z" fill="white"/>
<path d="M124.617 56.6598L124.668 56.6086H124.743C124.863 56.6086 124.949 56.5822 125.001 56.5295C125.054 56.4768 125.08 56.389 125.08 56.266V54.4155H125.251V56.266C125.251 56.4944 125.356 56.6086 125.566 56.6086H125.663V56.7535L125.609 56.8047C125.325 56.8047 125.158 56.7008 125.106 56.4944H125.093C125.07 56.61 125.022 56.692 124.95 56.7359C124.879 56.7813 124.768 56.8033 124.617 56.8033V56.6583V56.6598Z" fill="white"/>
<path d="M125.613 56.6598L125.664 56.6086H125.726C125.848 56.6086 125.937 56.5807 125.993 56.5251C126.048 56.4695 126.076 56.3816 126.076 56.2601V54.417H126.247V56.2601C126.247 56.449 126.206 56.5881 126.123 56.6744C126.04 56.7608 125.908 56.8047 125.726 56.8047H125.613V56.6598Z" fill="white"/>
<path d="M3.33984 41.6029V34.9053H7.74302V36.0281H4.60311V37.6502H7.37938V38.7731H4.60311V40.4815H7.74302V41.6044H3.33984V41.6029Z" fill="white"/>
<path d="M8.48047 41.6029L10.1848 39.06L8.5199 36.5947H9.91753L10.9515 38.2548H10.9895L12.0132 36.5947H13.3145L11.6204 39.0791L13.3247 41.6029H11.9271L10.8741 39.8755H10.8361L9.78316 41.6029H8.48193H8.48047Z" fill="white"/>
<path d="M14.2124 36.5947H15.4377V37.4204H15.4757C15.5648 37.132 15.7342 36.9036 15.9824 36.7338C16.2307 36.564 16.5213 36.4791 16.8528 36.4791C17.491 36.4791 17.9774 36.7045 18.3118 37.1554C18.6462 37.6063 18.8142 38.2505 18.8142 39.0893C18.8142 39.9282 18.6462 40.5825 18.3118 41.0364C17.9774 41.4902 17.4896 41.7171 16.8528 41.7171C16.5213 41.7171 16.2322 41.6307 15.9868 41.458C15.7415 41.2852 15.5706 41.0554 15.4742 40.767H15.4362V43.5207H14.2109V36.5932L14.2124 36.5947ZM16.4615 40.7011C16.7798 40.7011 17.0383 40.5957 17.2369 40.3849C17.4341 40.1741 17.5334 39.8886 17.5334 39.5314V38.6677C17.5334 38.309 17.4341 38.0235 17.2369 37.8083C17.0398 37.5946 16.7813 37.4863 16.4615 37.4863C16.1679 37.4863 15.924 37.5595 15.7298 37.7073C15.5355 37.8552 15.4377 38.0499 15.4377 38.2929V39.8857C15.4377 40.1477 15.5355 40.3498 15.7298 40.4903C15.924 40.6309 16.1679 40.7011 16.4615 40.7011Z" fill="white"/>
<path d="M21.9763 41.7186C21.6068 41.7186 21.2753 41.6556 20.9861 41.5312C20.6955 41.4068 20.4501 41.2311 20.2486 41.0042C20.0471 40.7773 19.8923 40.502 19.7842 40.1785C19.6761 39.855 19.6221 39.4919 19.6221 39.0893C19.6221 38.6867 19.6746 38.3339 19.7798 38.0147C19.8849 37.6956 20.0368 37.4218 20.234 37.1949C20.4311 36.968 20.6736 36.7923 20.9613 36.6679C21.249 36.5435 21.5732 36.4805 21.9383 36.4805C22.3268 36.4805 22.6656 36.5479 22.9533 36.6825C23.241 36.8172 23.4761 36.9988 23.6616 37.2301C23.8471 37.4599 23.9858 37.7278 24.0778 38.0309C24.1698 38.3354 24.2166 38.6589 24.2166 39.0044V39.407H20.8956V39.5314C20.8956 39.893 20.9978 40.1843 21.2022 40.4025C21.4067 40.6221 21.709 40.7304 22.1121 40.7304C22.4188 40.7304 22.6685 40.6675 22.8628 40.5401C23.057 40.4127 23.2308 40.2517 23.3841 40.0541L24.0442 40.7948C23.8398 41.0832 23.5608 41.3101 23.2074 41.4726C22.854 41.6366 22.4436 41.7186 21.9777 41.7186H21.9763ZM21.9573 37.4013C21.6316 37.4013 21.3731 37.5097 21.1818 37.7278C20.9905 37.9459 20.8941 38.227 20.8941 38.5725V38.6486H22.9431V38.5623C22.9431 38.2168 22.8584 37.9372 22.689 37.7234C22.5196 37.5097 22.2757 37.4013 21.9573 37.4013Z" fill="white"/>
<path d="M25.2969 41.6029V36.5947H26.5222V37.6312H26.5704C26.6025 37.4965 26.6521 37.3677 26.7193 37.2432C26.7865 37.1188 26.8741 37.0075 26.9822 36.9124C27.0903 36.8158 27.2203 36.7396 27.3692 36.6825C27.5196 36.6255 27.6934 36.5962 27.8906 36.5962H28.1593V37.7571H27.7767C27.3619 37.7571 27.0494 37.8186 26.8391 37.9401C26.6288 38.0616 26.5236 38.2607 26.5236 38.5345V41.6044H25.2983L25.2969 41.6029Z" fill="white"/>
<path d="M29.6717 35.8657C29.4161 35.8657 29.2335 35.8086 29.1211 35.6929C29.0101 35.5773 28.9531 35.4309 28.9531 35.2523V35.0605C28.9531 34.8819 29.0086 34.734 29.1211 34.6198C29.2321 34.5042 29.4161 34.4471 29.6717 34.4471C29.9272 34.4471 30.1025 34.5042 30.2179 34.6198C30.3332 34.7355 30.3902 34.8819 30.3902 35.0605V35.2523C30.3902 35.4309 30.3332 35.5787 30.2179 35.6929C30.1025 35.8086 29.9214 35.8657 29.6717 35.8657ZM29.0597 36.5947H30.285V41.6029H29.0597V36.5947Z" fill="white"/>
<path d="M33.7194 41.7186C33.35 41.7186 33.0184 41.6556 32.7293 41.5312C32.4386 41.4068 32.1933 41.2311 31.9918 41.0042C31.7902 40.7773 31.6354 40.502 31.5273 40.1785C31.4193 39.855 31.3652 39.4919 31.3652 39.0893C31.3652 38.6867 31.4178 38.3339 31.523 38.0147C31.6281 37.6956 31.78 37.4218 31.9772 37.1949C32.1743 36.968 32.4167 36.7923 32.7044 36.6679C32.9921 36.5435 33.3164 36.4805 33.68 36.4805C34.0685 36.4805 34.4073 36.5479 34.695 36.6825C34.9827 36.8172 35.2178 36.9988 35.4033 37.2301C35.5888 37.4599 35.7275 37.7278 35.8195 38.0309C35.9115 38.3354 35.9583 38.6589 35.9583 39.0044V39.407H32.6373V39.5314C32.6373 39.893 32.7395 40.1843 32.944 40.4025C33.1484 40.6221 33.4507 40.7304 33.8538 40.7304C34.1605 40.7304 34.4102 40.6675 34.6045 40.5401C34.7987 40.4127 34.9725 40.2517 35.1258 40.0541L35.7859 40.7948C35.5815 41.0832 35.3025 41.3101 34.9491 41.4726C34.5957 41.6366 34.1853 41.7186 33.7194 41.7186ZM33.7005 37.4013C33.3748 37.4013 33.1163 37.5097 32.925 37.7278C32.7337 37.9459 32.6373 38.227 32.6373 38.5725V38.6486H34.6862V38.5623C34.6862 38.2168 34.6015 37.9372 34.4321 37.7234C34.2627 37.5097 34.0188 37.4013 33.7005 37.4013Z" fill="white"/>
<path d="M37.041 41.6029V36.5947H38.2663V37.4292H38.3145C38.4167 37.1598 38.5774 36.9343 38.7979 36.7528C39.0184 36.5698 39.3222 36.4791 39.7121 36.4791C40.2291 36.4791 40.6249 36.6489 40.8995 36.9871C41.174 37.3267 41.3113 37.8083 41.3113 38.4364V41.6029H40.086V38.5608C40.086 38.2021 40.0217 37.9342 39.8947 37.7542C39.7676 37.5756 39.5559 37.4848 39.2623 37.4848C39.1353 37.4848 39.0111 37.5024 38.8943 37.5375C38.776 37.5726 38.6708 37.6239 38.5788 37.6912C38.4868 37.7586 38.4109 37.842 38.3539 37.9401C38.297 38.0396 38.2678 38.1553 38.2678 38.29V41.6H37.0425L37.041 41.6029Z" fill="white"/>
<path d="M44.6405 41.7186C44.271 41.7186 43.9424 41.6571 43.6547 41.5356C43.367 41.4141 43.126 41.2384 42.9318 41.0086C42.7375 40.7787 42.5886 40.502 42.4864 40.1785C42.3841 39.855 42.333 39.4919 42.333 39.0893C42.333 38.6867 42.3841 38.3251 42.4864 38.0045C42.5886 37.6854 42.7361 37.4116 42.9318 37.1847C43.126 36.9578 43.367 36.7836 43.6547 36.662C43.9424 36.5405 44.271 36.4791 44.6405 36.4791C45.1443 36.4791 45.5605 36.5903 45.8891 36.8143C46.2177 37.0383 46.4558 37.3487 46.6018 37.7454L45.5971 38.1963C45.5401 37.9855 45.432 37.8113 45.2758 37.6737C45.1195 37.536 44.9077 37.4672 44.639 37.4672C44.2944 37.4672 44.0373 37.5756 43.8679 37.7937C43.6985 38.0118 43.6138 38.2958 43.6138 38.6472V39.5592C43.6138 39.9106 43.6985 40.1946 43.8679 40.4083C44.0373 40.6221 44.2944 40.7304 44.639 40.7304C44.9326 40.7304 45.1589 40.6557 45.3181 40.505C45.4773 40.3542 45.6014 40.1682 45.692 39.9443L46.6296 40.3952C46.4631 40.8358 46.2119 41.1681 45.8731 41.3877C45.5343 41.6088 45.1239 41.7186 44.639 41.7186H44.6405Z" fill="white"/>
<path d="M49.5505 41.7186C49.181 41.7186 48.8495 41.6556 48.5603 41.5312C48.2697 41.4068 48.0244 41.2311 47.8228 41.0042C47.6213 40.7773 47.4665 40.502 47.3584 40.1785C47.2503 39.855 47.1963 39.4919 47.1963 39.0893C47.1963 38.6867 47.2489 38.3339 47.354 38.0147C47.4592 37.6956 47.611 37.4218 47.8082 37.1949C48.0054 36.968 48.2478 36.7923 48.5355 36.6679C48.8232 36.5435 49.1474 36.4805 49.5125 36.4805C49.901 36.4805 50.2398 36.5479 50.5275 36.6825C50.8152 36.8172 51.0504 36.9988 51.2358 37.2301C51.4213 37.4599 51.56 37.7278 51.652 38.0309C51.7441 38.3354 51.7908 38.6589 51.7908 39.0044V39.407H48.4698V39.5314C48.4698 39.893 48.572 40.1843 48.7765 40.4025C48.9809 40.6221 49.2832 40.7304 49.6863 40.7304C49.993 40.7304 50.2427 40.6675 50.437 40.5401C50.6312 40.4127 50.805 40.2517 50.9583 40.0541L51.6185 40.7948C51.414 41.0832 51.1351 41.3101 50.7816 41.4726C50.4282 41.6366 50.0178 41.7186 49.552 41.7186H49.5505ZM49.5315 37.4013C49.2058 37.4013 48.9473 37.5097 48.756 37.7278C48.5647 37.9459 48.4683 38.227 48.4683 38.5725V38.6486H50.5173V38.5623C50.5173 38.2168 50.4326 37.9372 50.2632 37.7234C50.0938 37.5097 49.8499 37.4013 49.5315 37.4013Z" fill="white"/>
<path d="M7.38814 49.9753H4.60311V52.8052H3.33984V46.1075H4.60311V48.851H7.38814V46.1075H8.6514V52.8052H7.38814V49.9753Z" fill="white"/>
<path d="M13.1324 51.9707H13.0842C13.0389 52.0981 12.9805 52.2181 12.9075 52.3309C12.8345 52.4421 12.741 52.5431 12.63 52.6324C12.519 52.7217 12.3847 52.792 12.2284 52.8432C12.0721 52.8945 11.891 52.9194 11.688 52.9194C11.171 52.9194 10.7753 52.7496 10.5007 52.4114C10.2261 52.0717 10.0889 51.5901 10.0889 50.962V47.7955H11.3142V50.8376C11.3142 51.1831 11.3813 51.4466 11.5157 51.6296C11.6501 51.8126 11.8633 51.9034 12.1568 51.9034C12.278 51.9034 12.3978 51.8873 12.5161 51.8551C12.6344 51.8229 12.7381 51.7731 12.8272 51.7057C12.9162 51.6384 12.9893 51.555 13.0477 51.4569C13.1046 51.3573 13.1339 51.2417 13.1339 51.107V47.797H14.3591V52.8052H13.1339V51.9707H13.1324Z" fill="white"/>
<path d="M15.7739 45.7064H16.9992V48.6226H17.0372C17.1263 48.3342 17.2957 48.1059 17.544 47.936C17.7922 47.7662 18.0829 47.6813 18.4144 47.6813C19.0526 47.6813 19.5389 47.9068 19.8733 48.3577C20.2078 48.8086 20.3757 49.4527 20.3757 50.2916C20.3757 51.1304 20.2078 51.7848 19.8733 52.2386C19.5389 52.6925 19.0511 52.9194 18.4144 52.9194C18.0829 52.9194 17.7937 52.833 17.5483 52.6603C17.303 52.4875 17.1321 52.2577 17.0357 51.9693H16.9978V52.8037H15.7725V45.7035L15.7739 45.7064ZM18.023 51.9048C18.3413 51.9048 18.5998 51.7994 18.7985 51.5886C18.9956 51.3778 19.0949 51.0923 19.0949 50.7351V49.8714C19.0949 49.5127 18.9956 49.2272 18.7985 49.012C18.6013 48.7983 18.3428 48.69 18.023 48.69C17.7294 48.69 17.4855 48.7632 17.2913 48.911C17.0971 49.0589 16.9992 49.2536 16.9992 49.4966V51.0894C16.9992 51.3515 17.0971 51.5535 17.2913 51.694C17.4855 51.8346 17.7294 51.9048 18.023 51.9048Z" fill="white"/>
<path d="M3.33984 55.1563H3.98827C4.25115 55.1563 4.45415 55.2412 4.59727 55.411C4.74039 55.5809 4.81195 55.837 4.81195 56.1782C4.81195 56.5193 4.74039 56.7754 4.59727 56.9453C4.45415 57.1151 4.25115 57.2 3.98827 57.2H3.33984V55.1548V55.1563ZM3.99119 57.0463C4.19127 57.0463 4.34754 56.9819 4.45853 56.8516C4.56952 56.7213 4.62502 56.5427 4.62502 56.3143V56.0449C4.62502 55.8166 4.56952 55.6379 4.45853 55.5077C4.34754 55.3774 4.19127 55.313 3.99119 55.313H3.5151V57.0477H3.99119V57.0463Z" fill="white"/>
<path d="M5.80368 57.2366C5.70437 57.2366 5.61383 57.219 5.53351 57.1839C5.45318 57.1488 5.38308 57.0975 5.32612 57.0302C5.26917 56.9628 5.22536 56.8809 5.19469 56.7828C5.16402 56.6847 5.14941 56.5749 5.14941 56.4519C5.14941 56.3289 5.16402 56.2191 5.19469 56.1225C5.22536 56.0259 5.26917 55.9439 5.32612 55.8766C5.38308 55.8092 5.45172 55.758 5.53204 55.7214C5.61237 55.6848 5.70145 55.6672 5.80076 55.6672C5.90007 55.6672 5.98331 55.6848 6.06072 55.7214C6.13812 55.758 6.2053 55.8078 6.25933 55.8722C6.31337 55.9366 6.35572 56.0142 6.38639 56.1064C6.41706 56.1972 6.43167 56.2982 6.43167 56.408V56.487H5.3232V56.5602C5.3232 56.6378 5.33489 56.7096 5.35679 56.7755C5.3787 56.8413 5.41083 56.897 5.45318 56.9438C5.49553 56.9906 5.54665 57.0272 5.60653 57.0536C5.6664 57.08 5.73504 57.0931 5.81099 57.0931C6.02859 57.0931 6.18047 56.9921 6.26372 56.7916L6.38639 56.8735C6.33966 56.9848 6.26664 57.0726 6.16587 57.1385C6.0651 57.2044 5.94388 57.2381 5.80222 57.2381L5.80368 57.2366ZM5.80076 55.8092C5.7292 55.8092 5.66348 55.8224 5.60507 55.8488C5.54665 55.8751 5.49699 55.9117 5.45464 55.9586C5.41229 56.0054 5.38016 56.061 5.35825 56.1269C5.33635 56.1928 5.32466 56.2645 5.32466 56.3421V56.3568H6.25057V56.3333C6.25057 56.2557 6.24035 56.184 6.21844 56.1181C6.19653 56.0523 6.16587 55.9981 6.12644 55.9527C6.08701 55.9073 6.03881 55.8722 5.98331 55.8473C5.92782 55.8224 5.86648 55.8092 5.80076 55.8092Z" fill="white"/>
<path d="M6.63184 55.7009H6.80708L7.26566 57.0229H7.27734L7.733 55.7009H7.9024L7.36205 57.2015H7.17219L6.63184 55.7009Z" fill="white"/>
<path d="M8.74802 57.2366C8.64871 57.2366 8.55816 57.219 8.47784 57.1839C8.39751 57.1488 8.32742 57.0975 8.27046 57.0302C8.2135 56.9628 8.16969 56.8809 8.13902 56.7828C8.10835 56.6847 8.09375 56.5749 8.09375 56.4519C8.09375 56.3289 8.10835 56.2191 8.13902 56.1225C8.16969 56.0259 8.2135 55.9439 8.27046 55.8766C8.32742 55.8092 8.39606 55.758 8.47638 55.7214C8.5567 55.6848 8.64579 55.6672 8.7451 55.6672C8.84441 55.6672 8.92765 55.6848 9.00505 55.7214C9.08246 55.758 9.14963 55.8078 9.20367 55.8722C9.2577 55.9366 9.30006 56.0142 9.33073 56.1064C9.3614 56.1972 9.376 56.2982 9.376 56.408V56.487H8.26754V56.5602C8.26754 56.6378 8.27922 56.7096 8.30113 56.7755C8.32303 56.8413 8.35516 56.897 8.39752 56.9438C8.43987 56.9906 8.49098 57.0272 8.55086 57.0536C8.61074 57.08 8.67938 57.0931 8.75532 57.0931C8.97292 57.0931 9.12481 56.9921 9.20805 56.7916L9.33073 56.8735C9.284 56.9848 9.21097 57.0726 9.1102 57.1385C9.00943 57.2044 8.88822 57.2381 8.74656 57.2381L8.74802 57.2366ZM8.7451 55.8092C8.67354 55.8092 8.60782 55.8224 8.5494 55.8488C8.49098 55.8751 8.44133 55.9117 8.39898 55.9586C8.35663 56.0054 8.3245 56.061 8.30259 56.1269C8.28068 56.1928 8.269 56.2645 8.269 56.3421V56.3568H9.19491V56.3333C9.19491 56.2557 9.18468 56.184 9.16278 56.1181C9.14087 56.0523 9.1102 55.9981 9.07077 55.9527C9.03134 55.9073 8.98315 55.8722 8.92765 55.8473C8.87215 55.8224 8.81082 55.8092 8.7451 55.8092Z" fill="white"/>
<path d="M9.98284 57.2015C9.92296 57.2015 9.87623 57.1854 9.84556 57.1517C9.81489 57.118 9.79883 57.0741 9.79883 57.0199V55.0333H9.96531V57.058H10.1961V57.2015H9.98284Z" fill="white"/>
<path d="M11.1035 57.2366C11.0042 57.2366 10.9151 57.219 10.8348 57.1839C10.7545 57.1488 10.6873 57.0975 10.6303 57.0302C10.5734 56.9628 10.5296 56.8809 10.4989 56.7828C10.4682 56.6847 10.4521 56.5749 10.4521 56.4519C10.4521 56.3289 10.4682 56.2191 10.4989 56.1225C10.5296 56.0259 10.5734 55.9439 10.6303 55.8766C10.6873 55.8092 10.7545 55.758 10.8348 55.7214C10.9151 55.6848 11.0042 55.6672 11.1035 55.6672C11.2028 55.6672 11.2919 55.6848 11.3722 55.7214C11.4525 55.758 11.5197 55.8092 11.5767 55.8766C11.6336 55.9439 11.6774 56.0259 11.7081 56.1225C11.7388 56.2191 11.7548 56.3289 11.7548 56.4519C11.7548 56.5749 11.7388 56.6847 11.7081 56.7828C11.6774 56.8809 11.6336 56.9628 11.5767 57.0302C11.5197 57.0975 11.4525 57.1488 11.3722 57.1839C11.2919 57.219 11.2028 57.2366 11.1035 57.2366ZM11.1035 57.0873C11.2495 57.0873 11.3649 57.0419 11.4496 56.9497C11.5343 56.8574 11.5767 56.7227 11.5767 56.5456V56.3582C11.5767 56.1825 11.5343 56.0479 11.4496 55.9556C11.3649 55.8634 11.2495 55.8166 11.1035 55.8166C10.9575 55.8166 10.8421 55.8619 10.7574 55.9542C10.6727 56.0464 10.6303 56.1811 10.6303 56.3582V56.5456C10.6303 56.7213 10.6727 56.856 10.7574 56.9482C10.8421 57.0404 10.9575 57.0873 11.1035 57.0873Z" fill="white"/>
<path d="M12.1787 55.7009H12.3452V55.941H12.354C12.3905 55.8575 12.4474 55.7902 12.5234 55.7404C12.5993 55.6907 12.6942 55.6658 12.8096 55.6658C13.0024 55.6658 13.1543 55.7346 13.2623 55.8707C13.3719 56.0069 13.4259 56.2001 13.4259 56.4504C13.4259 56.7008 13.3719 56.894 13.2623 57.0302C13.1528 57.1663 13.0024 57.2351 12.8096 57.2351C12.6942 57.2351 12.6008 57.2102 12.5263 57.1605C12.4518 57.1107 12.3949 57.0434 12.354 56.9599H12.3452V57.7856H12.1787V55.6994V55.7009ZM12.7716 57.0873C12.9221 57.0873 13.0389 57.039 13.1221 56.9438C13.2054 56.8486 13.2477 56.7198 13.2477 56.5573V56.3465C13.2477 56.184 13.2054 56.0552 13.1221 55.96C13.0389 55.8649 12.9221 55.8166 12.7716 55.8166C12.7132 55.8166 12.6577 55.8253 12.6066 55.8414C12.5555 55.8575 12.5102 55.881 12.4708 55.9102C12.4314 55.9395 12.4007 55.9747 12.3788 56.0157C12.3569 56.0566 12.3452 56.102 12.3452 56.1503V56.7447C12.3452 56.7974 12.3569 56.8443 12.3788 56.8867C12.4007 56.9292 12.4314 56.9643 12.4708 56.995C12.5102 57.0258 12.5555 57.0477 12.6066 57.0638C12.6577 57.08 12.7132 57.0873 12.7716 57.0873Z" fill="white"/>
<path d="M13.8564 57.2015V55.7009H14.0229V55.9381H14.0317C14.0478 55.9015 14.0667 55.8663 14.0901 55.8341C14.1135 55.8019 14.1412 55.7726 14.1748 55.7477C14.2084 55.7229 14.2478 55.7024 14.2931 55.6877C14.3384 55.6731 14.3924 55.6658 14.4552 55.6658C14.5618 55.6658 14.6568 55.6907 14.7385 55.7419C14.8203 55.7931 14.8802 55.8722 14.9167 55.982H14.9255C14.9532 55.8941 15.0043 55.8195 15.0817 55.758C15.1591 55.6965 15.2628 55.6658 15.3957 55.6658C15.5549 55.6658 15.6776 55.7155 15.7638 55.8136C15.8499 55.9117 15.8923 56.0537 15.8923 56.2367V57.2H15.7258V56.266C15.7258 55.9659 15.6002 55.8151 15.349 55.8151C15.2964 55.8151 15.2468 55.8224 15.2 55.8356C15.1533 55.8488 15.1124 55.8707 15.0759 55.8985C15.0394 55.9264 15.0116 55.9615 14.9897 56.0039C14.9678 56.0464 14.9576 56.0947 14.9576 56.1489V57.2015H14.7911V56.2675C14.7911 55.9673 14.667 55.8166 14.4172 55.8166C14.3661 55.8166 14.3179 55.8239 14.2697 55.837C14.2215 55.8502 14.1792 55.8707 14.1427 55.8985C14.1062 55.9264 14.077 55.96 14.0551 56.0025C14.0332 56.0449 14.0229 56.0932 14.0229 56.1474V57.2029H13.8564V57.2015Z" fill="white"/>
<path d="M16.9521 57.2366C16.8528 57.2366 16.7623 57.219 16.6819 57.1839C16.6016 57.1488 16.5315 57.0975 16.4746 57.0302C16.4176 56.9628 16.3738 56.8809 16.3431 56.7828C16.3125 56.6847 16.2979 56.5749 16.2979 56.4519C16.2979 56.3289 16.3125 56.2191 16.3431 56.1225C16.3738 56.0259 16.4176 55.9439 16.4746 55.8766C16.5315 55.8092 16.6002 55.758 16.6805 55.7214C16.7608 55.6848 16.8499 55.6672 16.9492 55.6672C17.0485 55.6672 17.1318 55.6848 17.2092 55.7214C17.2866 55.758 17.3537 55.8078 17.4078 55.8722C17.4618 55.9366 17.5042 56.0142 17.5348 56.1064C17.5655 56.1986 17.5801 56.2982 17.5801 56.408V56.487H16.4716V56.5602C16.4716 56.6378 16.4833 56.7096 16.5052 56.7755C16.5271 56.8413 16.5593 56.897 16.6016 56.9438C16.644 56.9906 16.6951 57.0272 16.755 57.0536C16.8148 57.08 16.8835 57.0931 16.9594 57.0931C17.177 57.0931 17.3289 56.9921 17.4122 56.7916L17.5348 56.8735C17.4881 56.9848 17.4151 57.0726 17.3143 57.1385C17.2135 57.2044 17.0923 57.2381 16.9507 57.2381L16.9521 57.2366ZM16.9492 55.8092C16.8776 55.8092 16.8119 55.8224 16.7535 55.8488C16.6951 55.8751 16.6454 55.9117 16.6031 55.9586C16.5607 56.0054 16.5286 56.061 16.5067 56.1269C16.4848 56.1928 16.4731 56.2645 16.4731 56.3421V56.3568H17.399V56.3333C17.399 56.2557 17.3888 56.184 17.3669 56.1181C17.345 56.0523 17.3143 55.9981 17.2749 55.9527C17.2354 55.9073 17.1872 55.8722 17.1318 55.8473C17.0763 55.8224 17.0149 55.8092 16.9492 55.8092Z" fill="white"/>
<path d="M18.0039 57.2015V55.7009H18.1704V55.9381H18.1792C18.2127 55.8605 18.2639 55.7946 18.334 55.7434C18.4041 55.6921 18.499 55.6658 18.6202 55.6658C18.7794 55.6658 18.9035 55.7155 18.9926 55.8136C19.0817 55.9117 19.1255 56.0537 19.1255 56.2367V57.2H18.959V56.266C18.959 56.1137 18.9269 56.001 18.8612 55.9264C18.7955 55.8517 18.7005 55.8151 18.5764 55.8151C18.5238 55.8151 18.4727 55.8224 18.4245 55.8356C18.3763 55.8488 18.3325 55.8693 18.2945 55.8971C18.2566 55.9249 18.2259 55.9586 18.204 56.001C18.1821 56.0435 18.1704 56.0918 18.1704 56.1459V57.2015H18.0039Z" fill="white"/>
<path d="M19.9069 57.2015C19.847 57.2015 19.8002 57.1854 19.7696 57.1517C19.7389 57.118 19.7228 57.0726 19.7228 57.017V55.8458H19.4629V55.7024H19.6323C19.6732 55.7024 19.7009 55.6936 19.7155 55.6775C19.7301 55.6614 19.7375 55.6306 19.7375 55.5882V55.2837H19.8893V55.7024H20.2282V55.8458H19.8893V57.0595H20.2048V57.2029H19.9069V57.2015Z" fill="white"/>
<path d="M20.7483 56.9321C20.7965 56.9321 20.833 56.9453 20.8549 56.9702C20.8768 56.995 20.8885 57.0273 20.8885 57.0668V57.1048C20.8885 57.1868 20.8651 57.2747 20.8198 57.3669C20.7745 57.4591 20.7132 57.5396 20.6373 57.6055H20.4971C20.5613 57.5396 20.611 57.4752 20.6446 57.4123C20.6782 57.3493 20.7015 57.2864 20.7132 57.222C20.6738 57.2176 20.6475 57.2044 20.6314 57.1824C20.6154 57.1605 20.6081 57.1327 20.6081 57.1019V57.0668C20.6081 57.0273 20.6197 56.995 20.6417 56.9702C20.6636 56.9453 20.7001 56.9321 20.7483 56.9321Z" fill="white"/>
<path d="M31.7014 56.9321C31.7496 56.9321 31.7861 56.9453 31.808 56.9702C31.8299 56.995 31.8416 57.0273 31.8416 57.0668V57.1048C31.8416 57.1868 31.8182 57.2747 31.7729 57.3669C31.7277 57.4591 31.6663 57.5396 31.5904 57.6055H31.4502C31.5145 57.5396 31.5641 57.4752 31.5977 57.4123C31.6313 57.3493 31.6547 57.2864 31.6663 57.222C31.6269 57.2176 31.6006 57.2044 31.5846 57.1824C31.5685 57.1605 31.5612 57.1327 31.5612 57.1019V57.0668C31.5612 57.0273 31.5729 56.995 31.5948 56.9702C31.6167 56.9453 31.6532 56.9321 31.7014 56.9321Z" fill="white"/>
<path d="M22.6658 57.2366C22.4979 57.2366 22.3591 57.2044 22.2467 57.1414C22.1342 57.0785 22.0393 56.9936 21.959 56.8882L22.0904 56.7798C22.162 56.875 22.2438 56.9497 22.3343 57.0024C22.4249 57.0551 22.5373 57.0814 22.6717 57.0814C22.8294 57.0814 22.9506 57.0434 23.0353 56.9687C23.12 56.894 23.1624 56.7886 23.1624 56.6539C23.1624 56.5295 23.1259 56.4373 23.0543 56.3787C22.9827 56.3202 22.8805 56.2777 22.7505 56.2499L22.5694 56.2118C22.3752 56.1723 22.2335 56.1079 22.1459 56.0157C22.0583 55.9234 22.0145 55.8063 22.0145 55.6643C22.0145 55.575 22.0305 55.4959 22.0612 55.4286C22.0919 55.3613 22.1372 55.3056 22.1941 55.2602C22.2511 55.2149 22.3212 55.1812 22.4015 55.1578C22.4818 55.1343 22.5709 55.1226 22.6688 55.1226C22.8206 55.1226 22.9492 55.1505 23.0543 55.2046C23.1595 55.2588 23.2456 55.3364 23.3143 55.4359L23.1828 55.5325C23.1259 55.4506 23.0558 55.3876 22.9711 55.3437C22.8864 55.2998 22.7827 55.2778 22.66 55.2778C22.5139 55.2778 22.3986 55.31 22.3139 55.373C22.2292 55.4359 22.1868 55.5311 22.1868 55.6584C22.1868 55.7858 22.2248 55.8678 22.3007 55.9249C22.3767 55.982 22.4774 56.023 22.6045 56.0479L22.7856 56.0859C22.9886 56.1313 23.1302 56.2001 23.212 56.2938C23.2938 56.3875 23.3347 56.5046 23.3347 56.6452C23.3347 56.8325 23.2748 56.9789 23.1565 57.0814C23.0382 57.1854 22.8747 57.2366 22.6658 57.2366Z" fill="white"/>
<path d="M24.0367 57.2015C23.9769 57.2015 23.9301 57.1854 23.8995 57.1517C23.8688 57.118 23.8527 57.0726 23.8527 57.017V55.8458H23.5928V55.7024H23.7622C23.8031 55.7024 23.8308 55.6936 23.8454 55.6775C23.86 55.6614 23.8673 55.6306 23.8673 55.5882V55.2837H24.0192V55.7024H24.358V55.8458H24.0192V57.0595H24.3347V57.2029H24.0367V57.2015Z" fill="white"/>
<path d="M25.6944 56.9643H25.6827C25.6695 56.9994 25.6506 57.0331 25.6272 57.0668C25.6038 57.1005 25.5746 57.1283 25.5396 57.1532C25.5045 57.178 25.4636 57.1971 25.4154 57.2132C25.3672 57.2293 25.3117 57.2366 25.2475 57.2366C25.0883 57.2366 24.9627 57.1868 24.8736 57.0887C24.7845 56.9907 24.7393 56.8487 24.7393 56.6657V55.7024H24.9057V56.6334C24.9057 56.7872 24.9393 56.9014 25.0051 56.976C25.0708 57.0507 25.1672 57.0873 25.2913 57.0873C25.3439 57.0873 25.3935 57.08 25.4417 57.0668C25.4899 57.0536 25.5323 57.0331 25.5702 57.0053C25.6082 56.9775 25.6389 56.9438 25.6608 56.9014C25.6827 56.8589 25.6944 56.8106 25.6944 56.7535V55.7024H25.8609V57.2029H25.6944V56.9658V56.9643Z" fill="white"/>
<path d="M27.3727 56.9614H27.3639C27.3245 57.0448 27.2676 57.1122 27.1931 57.1619C27.1186 57.2117 27.0237 57.2366 26.9083 57.2366C26.7155 57.2366 26.5636 57.1678 26.4556 57.0316C26.346 56.8955 26.292 56.7022 26.292 56.4519C26.292 56.2016 26.346 56.0083 26.4556 55.8722C26.5651 55.736 26.7155 55.6672 26.9083 55.6672C27.0237 55.6672 27.1186 55.6921 27.1945 55.7419C27.2705 55.7917 27.3274 55.859 27.3639 55.9425H27.3727V55.0348H27.5392V57.2029H27.3727V56.9628V56.9614ZM26.9463 57.0873C27.0047 57.0873 27.0602 57.08 27.1113 57.0638C27.1624 57.0477 27.2077 57.0258 27.2471 56.995C27.2865 56.9643 27.3172 56.9292 27.3391 56.8867C27.361 56.8443 27.3727 56.7974 27.3727 56.7447V56.1503C27.3727 56.102 27.361 56.0566 27.3391 56.0157C27.3172 55.9747 27.2865 55.9395 27.2471 55.9102C27.2077 55.881 27.1624 55.8575 27.1113 55.8414C27.0602 55.8253 27.0047 55.8166 26.9463 55.8166C26.7958 55.8166 26.679 55.8649 26.5958 55.96C26.5125 56.0552 26.4702 56.184 26.4702 56.3465V56.5573C26.4702 56.7198 26.5125 56.8486 26.5958 56.9438C26.679 57.039 26.7958 57.0873 26.9463 57.0873Z" fill="white"/>
<path d="M28.1637 55.2939C28.1243 55.2939 28.0965 55.2837 28.0776 55.2646C28.0586 55.2456 28.0498 55.2193 28.0498 55.1885V55.1592C28.0498 55.1285 28.0586 55.1021 28.0776 55.0831C28.0965 55.0641 28.1243 55.0538 28.1637 55.0538C28.2031 55.0538 28.2309 55.0641 28.2499 55.0831C28.2689 55.1021 28.2776 55.1285 28.2776 55.1592V55.1885C28.2776 55.2193 28.2689 55.2456 28.2499 55.2646C28.2309 55.2837 28.2031 55.2939 28.1637 55.2939ZM28.0819 55.7009H28.2484V57.2015H28.0819V55.7009Z" fill="white"/>
<path d="M29.3261 57.2366C29.2268 57.2366 29.1363 57.219 29.056 57.1839C28.9756 57.1488 28.9055 57.0975 28.8486 57.0302C28.7916 56.9628 28.7478 56.8809 28.7172 56.7828C28.6865 56.6847 28.6719 56.5749 28.6719 56.4519C28.6719 56.3289 28.6865 56.2191 28.7172 56.1225C28.7478 56.0259 28.7916 55.9439 28.8486 55.8766C28.9055 55.8092 28.9742 55.758 29.0545 55.7214C29.1348 55.6848 29.2239 55.6672 29.3232 55.6672C29.4225 55.6672 29.5058 55.6848 29.5832 55.7214C29.6606 55.758 29.7278 55.8078 29.7818 55.8722C29.8358 55.9366 29.8782 56.0142 29.9089 56.1064C29.9395 56.1972 29.9541 56.2982 29.9541 56.408V56.487H28.8457V56.5602C28.8457 56.6378 28.8574 56.7096 28.8793 56.7755C28.9012 56.8413 28.9333 56.897 28.9756 56.9438C29.018 56.9906 29.0691 57.0272 29.129 57.0536C29.1889 57.08 29.2575 57.0931 29.3334 57.0931C29.551 57.0931 29.7029 56.9921 29.7862 56.7916L29.9089 56.8735C29.8621 56.9848 29.7891 57.0726 29.6883 57.1385C29.5876 57.2044 29.4663 57.2381 29.3247 57.2381L29.3261 57.2366ZM29.3232 55.8092C29.2517 55.8092 29.1859 55.8224 29.1275 55.8488C29.0691 55.8751 29.0195 55.9117 28.9771 55.9586C28.9348 56.0054 28.9026 56.061 28.8807 56.1269C28.8588 56.1928 28.8471 56.2645 28.8471 56.3421V56.3568H29.773V56.3333C29.773 56.2557 29.7628 56.184 29.7409 56.1181C29.719 56.0523 29.6883 55.9981 29.6489 55.9527C29.6095 55.9073 29.5613 55.8722 29.5058 55.8473C29.4503 55.8224 29.3889 55.8092 29.3232 55.8092Z" fill="white"/>
<path d="M30.8029 57.2366C30.673 57.2366 30.5605 57.2117 30.4685 57.1634C30.3765 57.1151 30.2962 57.0434 30.2275 56.9497L30.3502 56.853C30.413 56.935 30.4802 56.995 30.5547 57.0346C30.6292 57.0741 30.7153 57.0931 30.8146 57.0931C30.93 57.0931 31.0176 57.0682 31.0804 57.0199C31.1432 56.9716 31.1739 56.9014 31.1739 56.8091C31.1739 56.7286 31.1505 56.6657 31.1023 56.6203C31.0541 56.5749 30.9767 56.5441 30.8672 56.528L30.7445 56.5075C30.6759 56.4973 30.6145 56.4827 30.5576 56.4636C30.5006 56.4446 30.4524 56.4182 30.413 56.3846C30.3736 56.3509 30.3414 56.3114 30.3195 56.2631C30.2976 56.2148 30.286 56.1577 30.286 56.0889C30.286 56.02 30.2991 55.9571 30.3254 55.9044C30.3517 55.8517 30.3867 55.8078 30.432 55.7726C30.4773 55.7375 30.5298 55.7111 30.5926 55.6936C30.6554 55.676 30.7226 55.6672 30.7942 55.6672C30.9183 55.6672 31.0205 55.6892 31.1009 55.7316C31.1812 55.7741 31.2484 55.8297 31.3053 55.8985L31.1943 56.001C31.1549 55.9542 31.1038 55.9103 31.0381 55.8707C30.9724 55.8312 30.8891 55.8107 30.7854 55.8107C30.6817 55.8107 30.5956 55.8341 30.5357 55.881C30.4758 55.9278 30.4466 55.9937 30.4466 56.0801C30.4466 56.1664 30.4729 56.2309 30.5269 56.2704C30.581 56.3099 30.6613 56.3377 30.7679 56.3553L30.8876 56.3729C31.0395 56.3963 31.152 56.4417 31.225 56.509C31.298 56.5764 31.3345 56.67 31.3345 56.7916C31.3345 56.9321 31.2878 57.0419 31.1929 57.1195C31.0979 57.1971 30.968 57.2366 30.8029 57.2366Z" fill="white"/>
<path d="M32.481 57.2015V55.1563H32.6562V57.0463H33.5558V57.2015H32.4795H32.481Z" fill="white"/>
<path d="M34.9243 57.2015C34.86 57.2015 34.8133 57.1854 34.784 57.1517C34.7548 57.118 34.7388 57.0741 34.7344 57.017V56.9643H34.7198C34.6862 57.0477 34.6322 57.1151 34.5562 57.1634C34.4803 57.2117 34.3839 57.2366 34.2671 57.2366C34.1093 57.2366 33.9881 57.1985 33.902 57.1209C33.8158 57.0434 33.7734 56.9336 33.7734 56.793C33.7734 56.6598 33.8202 56.5544 33.9151 56.4753C34.01 56.3963 34.1648 56.3582 34.381 56.3582H34.7256V56.1825C34.7256 55.9351 34.5986 55.8107 34.343 55.8107C34.2437 55.8107 34.1604 55.8312 34.0947 55.8736C34.029 55.9161 33.975 55.9761 33.9341 56.0537L33.8289 55.9659C33.8698 55.878 33.9326 55.8063 34.0173 55.7507C34.102 55.695 34.213 55.6658 34.3488 55.6658C34.5241 55.6658 34.6585 55.7097 34.7519 55.7975C34.8454 55.8854 34.8921 56.0083 34.8921 56.1679V57.058H35.0937V57.2015H34.9243ZM34.2904 57.0931C34.3503 57.0931 34.4073 57.0858 34.4598 57.0697C34.5124 57.0536 34.5591 57.0316 34.5986 57.0038C34.638 56.976 34.6701 56.9409 34.692 56.9013C34.7139 56.8618 34.7256 56.815 34.7256 56.7637V56.4841H34.3751C34.2247 56.4841 34.1166 56.5075 34.0495 56.5559C33.9823 56.6042 33.9487 56.67 33.9487 56.755V56.8252C33.9487 56.9131 33.9794 56.9804 34.0422 57.0258C34.105 57.0712 34.1867 57.0931 34.2904 57.0931Z" fill="white"/>
<path d="M35.249 55.7009H35.4126L35.7719 57.0521H35.7777L36.1749 55.7009H36.3297L36.7299 57.0521H36.7357L37.0921 55.7009H37.2527L36.8321 57.2015H36.6277L36.2509 55.9381H36.245L35.8712 57.2015H35.6696L35.249 55.7009Z" fill="white"/>
<path d="M39.3403 57.2015C39.276 57.2015 39.2293 57.1854 39.2001 57.1517C39.1709 57.118 39.1548 57.0741 39.1504 57.017V56.9643H39.1358C39.1022 57.0477 39.0482 57.1151 38.9722 57.1634C38.8963 57.2117 38.7999 57.2366 38.6831 57.2366C38.5254 57.2366 38.4041 57.1985 38.318 57.1209C38.2318 57.0434 38.1895 56.9336 38.1895 56.793C38.1895 56.6598 38.2362 56.5544 38.3311 56.4753C38.426 56.3963 38.5808 56.3582 38.797 56.3582H39.1417V56.1825C39.1417 55.9351 39.0146 55.8107 38.759 55.8107C38.6597 55.8107 38.5765 55.8312 38.5107 55.8736C38.445 55.9161 38.391 55.9761 38.3501 56.0537L38.2449 55.9659C38.2858 55.878 38.3486 55.8063 38.4333 55.7507C38.518 55.695 38.629 55.6658 38.7649 55.6658C38.9401 55.6658 39.0745 55.7097 39.1679 55.7975C39.2614 55.8854 39.3081 56.0083 39.3081 56.1679V57.058H39.5097V57.2015H39.3403ZM38.7064 57.0931C38.7663 57.0931 38.8233 57.0858 38.8759 57.0697C38.9284 57.0536 38.9752 57.0316 39.0146 57.0038C39.054 56.976 39.0861 56.9409 39.1081 56.9013C39.13 56.8618 39.1417 56.815 39.1417 56.7637V56.4841H38.7911C38.6407 56.4841 38.5327 56.5075 38.4655 56.5559C38.3983 56.6042 38.3647 56.67 38.3647 56.755V56.8252C38.3647 56.9131 38.3954 56.9804 38.4582 57.0258C38.521 57.0712 38.6027 57.0931 38.7064 57.0931Z" fill="white"/>
<path d="M39.8535 57.2015V55.7009H40.02V55.9381H40.0288C40.0624 55.8605 40.1135 55.7946 40.1836 55.7434C40.2537 55.6921 40.3486 55.6658 40.4698 55.6658C40.629 55.6658 40.7531 55.7155 40.8422 55.8136C40.9313 55.9117 40.9751 56.0537 40.9751 56.2367V57.2H40.8086V56.266C40.8086 56.1137 40.7765 56.001 40.7108 55.9264C40.6451 55.8517 40.5501 55.8151 40.426 55.8151C40.3734 55.8151 40.3223 55.8224 40.2741 55.8356C40.2259 55.8488 40.1821 55.8693 40.1441 55.8971C40.1062 55.9249 40.0755 55.9586 40.0536 56.001C40.0317 56.0435 40.02 56.0918 40.02 56.1459V57.2015H39.8535Z" fill="white"/>
<path d="M42.4665 56.9614H42.4577C42.4183 57.0448 42.3613 57.1122 42.2868 57.1619C42.2123 57.2117 42.1174 57.2366 42.002 57.2366C41.8093 57.2366 41.6574 57.1678 41.5493 57.0316C41.4398 56.8955 41.3857 56.7022 41.3857 56.4519C41.3857 56.2016 41.4398 56.0083 41.5493 55.8722C41.6588 55.736 41.8093 55.6672 42.002 55.6672C42.1174 55.6672 42.2123 55.6921 42.2883 55.7419C42.3642 55.7917 42.4212 55.859 42.4577 55.9425H42.4665V55.0348H42.6329V57.2029H42.4665V56.9628V56.9614ZM42.04 57.0873C42.0984 57.0873 42.1539 57.08 42.205 57.0638C42.2562 57.0477 42.3014 57.0258 42.3409 56.995C42.3803 56.9643 42.411 56.9292 42.4329 56.8867C42.4548 56.8443 42.4665 56.7974 42.4665 56.7447V56.1503C42.4665 56.102 42.4548 56.0566 42.4329 56.0157C42.411 55.9747 42.3803 55.9395 42.3409 55.9102C42.3014 55.881 42.2562 55.8575 42.205 55.8414C42.1539 55.8253 42.0984 55.8166 42.04 55.8166C41.8896 55.8166 41.7728 55.8649 41.6895 55.96C41.6063 56.0552 41.5639 56.184 41.5639 56.3465V56.5573C41.5639 56.7198 41.6063 56.8486 41.6895 56.9438C41.7728 57.039 41.8896 57.0873 42.04 57.0873Z" fill="white"/>
<path d="M45.1605 57.2015L44.9386 56.5661H44.0711L43.8491 57.2015H43.6738L44.3953 55.1563H44.6202L45.3446 57.2015H45.1605ZM44.5092 55.3232H44.4975L44.1149 56.4109H44.8918L44.5092 55.3232Z" fill="white"/>
<path d="M45.6924 57.2015V55.7009H45.8589V55.9703H45.8706C45.8998 55.9 45.9494 55.837 46.0195 55.7829C46.0896 55.7287 46.1889 55.7009 46.3174 55.7009H46.4168V55.8649H46.2853C46.1612 55.8649 46.059 55.8927 45.9786 55.9468C45.8983 56.001 45.8589 56.0771 45.8589 56.1752V57.2H45.6924V57.2015Z" fill="white"/>
<path d="M46.7363 55.0333H46.9028V55.941H46.9116C46.9481 55.8575 47.005 55.7902 47.081 55.7404C47.1569 55.6907 47.2519 55.6658 47.3672 55.6658C47.56 55.6658 47.7104 55.7346 47.82 55.8707C47.9295 56.0069 47.9835 56.2001 47.9835 56.4504C47.9835 56.7008 47.9295 56.894 47.82 57.0302C47.7104 57.1663 47.56 57.2351 47.3672 57.2351C47.2519 57.2351 47.1584 57.2102 47.0839 57.1605C47.0094 57.1107 46.9525 57.0434 46.9116 56.9599H46.9028V57.2H46.7363V55.0319V55.0333ZM47.3293 57.0873C47.4797 57.0873 47.5965 57.039 47.6798 56.9438C47.763 56.8486 47.8054 56.7198 47.8054 56.5573V56.3465C47.8054 56.184 47.763 56.0552 47.6798 55.96C47.5965 55.8649 47.4797 55.8166 47.3293 55.8166C47.2708 55.8166 47.2153 55.8253 47.1642 55.8414C47.1131 55.8575 47.0678 55.881 47.0284 55.9102C46.989 55.9395 46.9583 55.9747 46.9364 56.0157C46.9145 56.0566 46.9028 56.102 46.9028 56.1503V56.7447C46.9028 56.7974 46.9145 56.8443 46.9364 56.8867C46.9583 56.9292 46.989 56.9643 47.0284 56.995C47.0678 57.0258 47.1131 57.0477 47.1642 57.0638C47.2153 57.08 47.2708 57.0873 47.3293 57.0873Z" fill="white"/>
<path d="M48.4958 55.2939C48.4563 55.2939 48.4286 55.2837 48.4096 55.2646C48.3906 55.2456 48.3818 55.2193 48.3818 55.1885V55.1592C48.3818 55.1285 48.3906 55.1021 48.4096 55.0831C48.4286 55.0641 48.4563 55.0538 48.4958 55.0538C48.5352 55.0538 48.5629 55.0641 48.5819 55.0831C48.6009 55.1021 48.6097 55.1285 48.6097 55.1592V55.1885C48.6097 55.2193 48.6009 55.2456 48.5819 55.2646C48.5629 55.2837 48.5352 55.2939 48.4958 55.2939ZM48.414 55.7009H48.5805V57.2015H48.414V55.7009Z" fill="white"/>
<path d="M49.3815 57.2015C49.3216 57.2015 49.2749 57.1854 49.2442 57.1517C49.2135 57.118 49.1975 57.0726 49.1975 57.017V55.8458H48.9375V55.7024H49.1069C49.1478 55.7024 49.1755 55.6936 49.1902 55.6775C49.2048 55.6614 49.2121 55.6306 49.2121 55.5882V55.2837H49.3639V55.7024H49.7028V55.8458H49.3639V57.0595H49.6794V57.2029H49.3815V57.2015Z" fill="white"/>
<path d="M50.1025 57.2015V55.7009H50.269V55.9703H50.2807C50.3099 55.9 50.3596 55.837 50.4297 55.7829C50.4998 55.7287 50.5991 55.7009 50.7276 55.7009H50.8269V55.8649H50.6955C50.5713 55.8649 50.4691 55.8927 50.3888 55.9468C50.3085 56.001 50.269 56.0771 50.269 56.1752V57.2H50.1025V57.2015Z" fill="white"/>
<path d="M52.1694 57.2015C52.1051 57.2015 52.0584 57.1854 52.0292 57.1517C52 57.118 51.9839 57.0741 51.9795 57.017V56.9643H51.9649C51.9313 57.0477 51.8773 57.1151 51.8013 57.1634C51.7254 57.2117 51.629 57.2366 51.5122 57.2366C51.3544 57.2366 51.2332 57.1985 51.1471 57.1209C51.0609 57.0434 51.0186 56.9336 51.0186 56.793C51.0186 56.6598 51.0653 56.5544 51.1602 56.4753C51.2551 56.3963 51.4099 56.3582 51.6261 56.3582H51.9707V56.1825C51.9707 55.9351 51.8437 55.8107 51.5881 55.8107C51.4888 55.8107 51.4056 55.8312 51.3398 55.8736C51.2741 55.9161 51.2201 55.9761 51.1792 56.0537L51.074 55.9659C51.1149 55.878 51.1777 55.8063 51.2624 55.7507C51.3471 55.695 51.4581 55.6658 51.594 55.6658C51.7692 55.6658 51.9036 55.7097 51.997 55.7975C52.0905 55.8854 52.1372 56.0083 52.1372 56.1679V57.058H52.3388V57.2015H52.1694ZM51.5355 57.0931C51.5954 57.0931 51.6524 57.0858 51.7049 57.0697C51.7575 57.0536 51.8043 57.0316 51.8437 57.0038C51.8831 56.976 51.9153 56.9409 51.9372 56.9013C51.9591 56.8618 51.9707 56.815 51.9707 56.7637V56.4841H51.6202C51.4698 56.4841 51.3617 56.5075 51.2946 56.5559C51.2274 56.6042 51.1938 56.67 51.1938 56.755V56.8252C51.1938 56.9131 51.2245 56.9804 51.2873 57.0258C51.3501 57.0712 51.4319 57.0931 51.5355 57.0931Z" fill="white"/>
<path d="M52.945 57.2015C52.8851 57.2015 52.8383 57.1854 52.8077 57.1517C52.777 57.118 52.7609 57.0726 52.7609 57.017V55.8458H52.501V55.7024H52.6704C52.7113 55.7024 52.739 55.6936 52.7536 55.6775C52.7682 55.6614 52.7755 55.6306 52.7755 55.5882V55.2837H52.9274V55.7024H53.2662V55.8458H52.9274V57.0595H53.2429V57.2029H52.945V57.2015Z" fill="white"/>
<path d="M53.7477 55.2939C53.7083 55.2939 53.6805 55.2837 53.6615 55.2646C53.6426 55.2456 53.6338 55.2193 53.6338 55.1885V55.1592C53.6338 55.1285 53.6426 55.1021 53.6615 55.0831C53.6805 55.0641 53.7083 55.0538 53.7477 55.0538C53.7871 55.0538 53.8149 55.0641 53.8339 55.0831C53.8529 55.1021 53.8616 55.1285 53.8616 55.1592V55.1885C53.8616 55.2193 53.8529 55.2456 53.8339 55.2646C53.8149 55.2837 53.7871 55.2939 53.7477 55.2939ZM53.6659 55.7009H53.8324V57.2015H53.6659V55.7009Z" fill="white"/>
<path d="M54.9092 57.2366C54.8098 57.2366 54.7208 57.219 54.6404 57.1839C54.5601 57.1488 54.4929 57.0975 54.436 57.0302C54.379 56.9628 54.3352 56.8809 54.3045 56.7828C54.2739 56.6847 54.2578 56.5749 54.2578 56.4519C54.2578 56.3289 54.2739 56.2191 54.3045 56.1225C54.3352 56.0259 54.379 55.9439 54.436 55.8766C54.4929 55.8092 54.5601 55.758 54.6404 55.7214C54.7208 55.6848 54.8098 55.6672 54.9092 55.6672C55.0085 55.6672 55.0976 55.6848 55.1779 55.7214C55.2582 55.758 55.3254 55.8092 55.3823 55.8766C55.4393 55.9439 55.4831 56.0259 55.5138 56.1225C55.5444 56.2191 55.5605 56.3289 55.5605 56.4519C55.5605 56.5749 55.5444 56.6847 55.5138 56.7828C55.4831 56.8809 55.4393 56.9628 55.3823 57.0302C55.3254 57.0975 55.2582 57.1488 55.1779 57.1839C55.0976 57.219 55.0085 57.2366 54.9092 57.2366ZM54.9092 57.0873C55.0552 57.0873 55.1706 57.0419 55.2553 56.9497C55.34 56.8574 55.3823 56.7227 55.3823 56.5456V56.3582C55.3823 56.1825 55.34 56.0479 55.2553 55.9556C55.1706 55.8634 55.0552 55.8166 54.9092 55.8166C54.7631 55.8166 54.6477 55.8619 54.563 55.9542C54.4783 56.0464 54.436 56.1811 54.436 56.3582V56.5456C54.436 56.7213 54.4783 56.856 54.563 56.9482C54.6477 57.0404 54.7631 57.0873 54.9092 57.0873Z" fill="white"/>
<path d="M55.9834 57.2015V55.7009H56.1499V55.9381H56.1586C56.1922 55.8605 56.2433 55.7946 56.3134 55.7434C56.3835 55.6921 56.4785 55.6658 56.5997 55.6658C56.7589 55.6658 56.883 55.7155 56.9721 55.8136C57.0612 55.9117 57.105 56.0537 57.105 56.2367V57.2H56.9385V56.266C56.9385 56.1137 56.9064 56.001 56.8407 55.9264C56.7749 55.8517 56.68 55.8151 56.5559 55.8151C56.5033 55.8151 56.4522 55.8224 56.404 55.8356C56.3558 55.8488 56.312 55.8693 56.274 55.8971C56.2361 55.9249 56.2054 55.9586 56.1835 56.001C56.1616 56.0435 56.1499 56.0918 56.1499 56.1459V57.2015H55.9834Z" fill="white"/>
<path d="M58.3164 56.2865C58.3164 56.1416 58.331 56.0039 58.3588 55.8736C58.3865 55.7434 58.4259 55.6218 58.4741 55.5091C58.5223 55.3964 58.5793 55.2954 58.6435 55.2046C58.7078 55.1139 58.7764 55.0377 58.848 54.9748H59.0116C58.9342 55.045 58.8626 55.1256 58.7969 55.2178C58.7312 55.31 58.6757 55.4081 58.6275 55.515C58.5793 55.6218 58.5428 55.7316 58.515 55.8473C58.4873 55.9629 58.4741 56.0771 58.4741 56.1928V56.386C58.4741 56.5017 58.4873 56.6159 58.515 56.7315C58.5428 56.8472 58.5807 56.957 58.6289 57.0638C58.6771 57.1707 58.7341 57.2703 58.7998 57.3625C58.8655 57.4547 58.9356 57.5353 59.0116 57.6011H58.848C58.7779 57.5411 58.7107 57.465 58.6465 57.3742C58.5822 57.2834 58.5252 57.1824 58.477 57.0697C58.4289 56.957 58.3894 56.8355 58.3602 56.7037C58.331 56.572 58.3164 56.4329 58.3164 56.2865Z" fill="white"/>
<path d="M59.8188 56.1459L59.4887 56.5119V57.2H59.3135V55.1548H59.4887V56.307H59.4946L59.8217 55.9293L60.4935 55.1563H60.7067L59.9385 56.0259L60.7447 57.2015H60.5286L59.8188 56.1459Z" fill="white"/>
<path d="M61.2281 57.2278C61.1799 57.2278 61.1434 57.2161 61.1215 57.1912C61.0996 57.1663 61.0879 57.1356 61.0879 57.0961V57.0638C61.0879 57.0243 61.0996 56.9936 61.1215 56.9687C61.1434 56.9438 61.1799 56.9321 61.2281 56.9321C61.2763 56.9321 61.3099 56.9438 61.3332 56.9687C61.3566 56.9936 61.3683 57.0243 61.3683 57.0638V57.0961C61.3683 57.1356 61.3566 57.1663 61.3332 57.1912C61.3099 57.2161 61.2748 57.2278 61.2281 57.2278Z" fill="white"/>
<path d="M61.897 57.2015V55.1563H62.0722V57.0463H62.9718V57.2015H61.8955H61.897Z" fill="white"/>
<path d="M63.5015 57.2278C63.4533 57.2278 63.4168 57.2161 63.3949 57.1912C63.373 57.1663 63.3613 57.1356 63.3613 57.0961V57.0638C63.3613 57.0243 63.373 56.9936 63.3949 56.9687C63.4168 56.9438 63.4533 56.9321 63.5015 56.9321C63.5497 56.9321 63.5833 56.9438 63.6067 56.9687C63.63 56.9936 63.6417 57.0243 63.6417 57.0638V57.0961C63.6417 57.1356 63.63 57.1663 63.6067 57.1912C63.5833 57.2161 63.5483 57.2278 63.5015 57.2278Z" fill="white"/>
<path d="M65.4663 56.2396H64.3461V57.2H64.1709V55.1548H64.3461V56.083H65.4663V55.1548H65.6415V57.2H65.4663V56.2396Z" fill="white"/>
<path d="M66.6375 56.2865C66.6375 56.4329 66.6229 56.572 66.5937 56.7037C66.5645 56.8355 66.5251 56.957 66.4769 57.0697C66.4287 57.1824 66.3717 57.2834 66.3075 57.3742C66.2432 57.465 66.176 57.5411 66.1059 57.6011H65.9424C66.0183 57.5353 66.0884 57.4547 66.1541 57.3625C66.2199 57.2703 66.2768 57.1707 66.325 57.0638C66.3732 56.957 66.4112 56.8472 66.4389 56.7315C66.4667 56.6159 66.4798 56.5017 66.4798 56.386V56.1928C66.4798 56.0771 66.4667 55.9629 66.4389 55.8473C66.4112 55.7316 66.3747 55.6218 66.3265 55.515C66.2783 55.4081 66.2228 55.31 66.1571 55.2178C66.0913 55.1256 66.0198 55.045 65.9424 54.9748H66.1059C66.1775 55.0377 66.2461 55.1139 66.3104 55.2046C66.3747 55.2954 66.4316 55.3964 66.4798 55.5091C66.528 55.6218 66.5674 55.7434 66.5952 55.8736C66.6229 56.0039 66.6375 56.1416 66.6375 56.2865Z" fill="white"/>
<path d="M111.232 38.3035C110.578 38.3035 110.026 38.2675 109.576 38.1955C109.132 38.1235 108.772 38.0065 108.496 37.8445C108.22 37.6765 108.019 37.4605 107.893 37.1965C107.773 36.9325 107.713 36.6055 107.713 36.2155C107.713 35.9755 107.743 35.7115 107.803 35.4235C107.869 35.1355 107.959 34.8505 108.073 34.5685L108.937 34.8205C108.835 35.0245 108.754 35.2225 108.694 35.4145C108.64 35.6005 108.613 35.7685 108.613 35.9185C108.613 36.0925 108.649 36.2395 108.721 36.3595C108.793 36.4735 108.91 36.5665 109.072 36.6385C109.234 36.7105 109.447 36.7645 109.711 36.8005C109.975 36.8305 110.302 36.8455 110.692 36.8455H111.952C112.354 36.8455 112.684 36.8365 112.942 36.8185C113.206 36.8005 113.413 36.7675 113.563 36.7195C113.719 36.6715 113.827 36.6085 113.887 36.5305C113.947 36.4465 113.977 36.3415 113.977 36.2155V31.5355H115.057V36.2155C115.057 36.6355 115.297 36.8455 115.777 36.8455H116.047V37.9255L115.777 38.1955C115.291 38.1955 114.91 38.0995 114.634 37.9075C114.364 37.7095 114.184 37.4005 114.094 36.9805H114.04C113.992 37.2265 113.908 37.4335 113.788 37.6015C113.668 37.7695 113.497 37.9075 113.275 38.0155C113.053 38.1175 112.774 38.1895 112.438 38.2315C112.108 38.2795 111.706 38.3035 111.232 38.3035ZM110.449 35.3965L111.862 34.7305L111.844 34.6675H111.124C110.908 34.6675 110.74 34.6225 110.62 34.5325C110.506 34.4425 110.449 34.2775 110.449 34.0375C110.449 33.8275 110.518 33.6565 110.656 33.5245C110.794 33.3925 110.992 33.2515 111.25 33.1015L111.844 32.7595L112.168 33.2995L111.061 33.9205L111.079 33.9925H111.781C112.003 33.9925 112.174 34.0345 112.294 34.1185C112.414 34.1965 112.474 34.3405 112.474 34.5505C112.474 34.7665 112.411 34.9435 112.285 35.0815C112.165 35.2195 111.979 35.3515 111.727 35.4775L110.746 35.9725L110.449 35.3965ZM115.775 37.1155L116.045 36.8455H117.008V37.9255L116.738 38.1955H115.775V37.1155ZM116.742 37.1155L117.012 36.8455H117.975V37.9255L117.705 38.1955H116.742V37.1155ZM117.709 37.1155L117.979 36.8455H118.942V37.9255L118.672 38.1955H117.709V37.1155ZM118.675 37.1155L118.945 36.8455H119.908V37.9255L119.638 38.1955H118.675V37.1155ZM119.642 37.1155L119.912 36.8455H120.875V37.9255L120.605 38.1955H119.642V37.1155ZM120.609 37.1155L120.879 36.8455H121.842V37.9255L121.572 38.1955H120.609V37.1155ZM121.576 37.1155L121.846 36.8455H122.116C122.596 36.8455 122.836 36.6355 122.836 36.2155V34.9285H123.826V36.2155C123.826 36.6355 124.036 36.8455 124.456 36.8455H124.816V37.9255L124.546 38.1955C124.066 38.1955 123.7 38.0995 123.448 37.9075C123.202 37.7095 123.037 37.4005 122.953 36.9805H122.899C122.815 37.4005 122.671 37.7095 122.467 37.9075C122.263 38.0995 121.966 38.1955 121.576 38.1955V37.1155ZM123.241 34.2085C123.085 34.2085 122.956 34.1605 122.854 34.0645C122.758 33.9685 122.71 33.8155 122.71 33.6055C122.71 33.3955 122.758 33.2425 122.854 33.1465C122.956 33.0505 123.085 33.0025 123.241 33.0025H123.421C123.577 33.0025 123.703 33.0505 123.799 33.1465C123.901 33.2425 123.952 33.3955 123.952 33.6055C123.952 33.8155 123.901 33.9685 123.799 34.0645C123.703 34.1605 123.577 34.2085 123.421 34.2085H123.241ZM124.546 37.1155L124.816 36.8455H125.077C125.293 36.8455 125.47 36.8365 125.608 36.8185C125.752 36.8005 125.866 36.7705 125.95 36.7285C126.04 36.6805 126.1 36.6235 126.13 36.5575C126.166 36.4855 126.184 36.3985 126.184 36.2965C126.184 36.2065 126.175 36.0925 126.157 35.9545C126.145 35.8105 126.118 35.6245 126.076 35.3965L125.923 34.5595L126.904 34.3975L127.039 35.2345C127.069 35.3965 127.093 35.5765 127.111 35.7745C127.129 35.9725 127.138 36.1465 127.138 36.2965C127.138 36.9505 126.976 37.4305 126.652 37.7365C126.334 38.0425 125.809 38.1955 125.077 38.1955H124.546V37.1155ZM126.121 40.1305C125.965 40.1305 125.836 40.0825 125.734 39.9865C125.638 39.8905 125.59 39.7375 125.59 39.5275C125.59 39.3175 125.638 39.1645 125.734 39.0685C125.836 38.9725 125.965 38.9245 126.121 38.9245H126.301C126.457 38.9245 126.583 38.9725 126.679 39.0685C126.781 39.1645 126.832 39.3175 126.832 39.5275C126.832 39.7375 126.781 39.8905 126.679 39.9865C126.583 40.0825 126.457 40.1305 126.301 40.1305H126.121ZM108.887 49.3035C108.287 49.3035 107.819 49.1445 107.483 48.8265C107.153 48.5085 106.988 48.0585 106.988 47.4765C106.988 47.1165 107.078 46.7475 107.258 46.3695C107.438 45.9915 107.711 45.6285 108.077 45.2805L108.257 45.1095H109.571L109.76 45.2715C110.12 45.5775 110.381 45.8895 110.543 46.2075C110.705 46.5255 110.786 46.8825 110.786 47.2785C110.786 47.9145 110.618 48.4125 110.282 48.7725C109.952 49.1265 109.487 49.3035 108.887 49.3035ZM108.977 47.9535C109.265 47.9535 109.487 47.9025 109.643 47.8005C109.805 47.6985 109.886 47.5605 109.886 47.3865C109.886 47.3325 109.874 47.2755 109.85 47.2155C109.832 47.1555 109.793 47.0895 109.733 47.0175C109.673 46.9455 109.592 46.8615 109.49 46.7655C109.388 46.6695 109.256 46.5585 109.094 46.4325L108.779 46.1895H108.707L108.446 46.4415C108.344 46.5435 108.257 46.6335 108.185 46.7115C108.113 46.7895 108.053 46.8645 108.005 46.9365C107.963 47.0025 107.933 47.0685 107.915 47.1345C107.897 47.2005 107.888 47.2695 107.888 47.3415C107.888 47.5215 107.966 47.6685 108.122 47.7825C108.284 47.8965 108.509 47.9535 108.797 47.9535H108.977ZM109.535 44.3895C109.379 44.3895 109.25 44.3415 109.148 44.2455C109.052 44.1495 109.004 43.9965 109.004 43.7865C109.004 43.5765 109.052 43.4235 109.148 43.3275C109.25 43.2315 109.379 43.1835 109.535 43.1835H109.715C109.871 43.1835 109.997 43.2315 110.093 43.3275C110.195 43.4235 110.246 43.5765 110.246 43.7865C110.246 43.9965 110.195 44.1495 110.093 44.2455C109.997 44.3415 109.871 44.3895 109.715 44.3895H109.535ZM108.113 44.3895C107.957 44.3895 107.828 44.3415 107.726 44.2455C107.63 44.1495 107.582 43.9965 107.582 43.7865C107.582 43.5765 107.63 43.4235 107.726 43.3275C107.828 43.2315 107.957 43.1835 108.113 43.1835H108.293C108.449 43.1835 108.575 43.2315 108.671 43.3275C108.773 43.4235 108.824 43.5765 108.824 43.7865C108.824 43.9965 108.773 44.1495 108.671 44.2455C108.575 44.3415 108.449 44.3895 108.293 44.3895H108.113ZM110.425 50.0055H110.785C111.331 50.0055 111.73 49.8945 111.982 49.6725C112.24 49.4505 112.366 49.0815 112.36 48.5655C112.36 48.4275 112.351 48.2835 112.333 48.1335C112.315 47.9775 112.291 47.8125 112.261 47.6385L112.072 46.4415L113.053 46.2885L113.152 46.9455L114.637 46.7025V45.9285H115.627V47.1795C115.627 47.4495 115.681 47.6295 115.789 47.7195C115.897 47.8035 116.083 47.8455 116.347 47.8455H116.617V48.9255L116.347 49.1955H116.248C115.792 49.1955 115.438 49.1055 115.186 48.9255C114.934 48.7395 114.769 48.4395 114.691 48.0255L113.332 48.2505C113.338 48.2985 113.341 48.3465 113.341 48.3945C113.341 48.4425 113.341 48.4845 113.341 48.5205C113.341 48.9525 113.287 49.3425 113.179 49.6905C113.071 50.0385 112.909 50.3355 112.693 50.5815C112.477 50.8335 112.21 51.0255 111.892 51.1575C111.574 51.2895 111.208 51.3555 110.794 51.3555H110.425V50.0055ZM115.033 51.1305C114.877 51.1305 114.748 51.0825 114.646 50.9865C114.55 50.8905 114.502 50.7375 114.502 50.5275C114.502 50.3175 114.55 50.1645 114.646 50.0685C114.748 49.9725 114.877 49.9245 115.033 49.9245H115.213C115.369 49.9245 115.495 49.9725 115.591 50.0685C115.693 50.1645 115.744 50.3175 115.744 50.5275C115.744 50.7375 115.693 50.8905 115.591 50.9865C115.495 51.0825 115.369 51.1305 115.213 51.1305H115.033ZM116.346 48.1155L116.616 47.8455H117.237C117.573 47.8455 117.873 47.8425 118.137 47.8365C118.407 47.8245 118.662 47.8005 118.902 47.7645C119.142 47.7285 119.376 47.6745 119.604 47.6025C119.832 47.5305 120.075 47.4315 120.333 47.3055L120.666 47.1435V47.0985L119.226 46.7925L117.867 46.4595V47.1345H116.832V46.4415C116.832 46.0155 116.922 45.7035 117.102 45.5055C117.288 45.3075 117.57 45.2085 117.948 45.2085C117.996 45.2085 118.044 45.2115 118.092 45.2175C118.146 45.2235 118.206 45.2325 118.272 45.2445C118.344 45.2565 118.428 45.2745 118.524 45.2985C118.62 45.3225 118.74 45.3525 118.884 45.3885L120.621 45.8385C120.861 45.9045 121.119 45.9555 121.395 45.9915C121.671 46.0275 121.944 46.0455 122.214 46.0455H122.394V47.3955H121.764C121.77 47.5635 121.818 47.6805 121.908 47.7465C122.004 47.8125 122.166 47.8455 122.394 47.8455H122.664V48.9255L122.394 49.1955C121.944 49.1895 121.593 49.0875 121.341 48.8895C121.095 48.6855 120.942 48.3705 120.882 47.9445L120.846 47.9715C120.45 48.2415 120.093 48.4575 119.775 48.6195C119.463 48.7755 119.166 48.8985 118.884 48.9885C118.602 49.0725 118.329 49.1295 118.065 49.1595C117.801 49.1835 117.525 49.1955 117.237 49.1955H116.346V48.1155ZM118.992 44.4885C118.836 44.4885 118.707 44.4405 118.605 44.3445C118.509 44.2485 118.461 44.0955 118.461 43.8855C118.461 43.6755 118.509 43.5225 118.605 43.4265C118.707 43.3305 118.836 43.2825 118.992 43.2825H119.172C119.328 43.2825 119.454 43.3305 119.55 43.4265C119.652 43.5225 119.703 43.6755 119.703 43.8855C119.703 44.0955 119.652 44.2485 119.55 44.3445C119.454 44.4405 119.328 44.4885 119.172 44.4885H118.992ZM122.393 48.1155L122.663 47.8455H123.059C123.287 47.8455 123.437 47.8035 123.509 47.7195C123.587 47.6295 123.626 47.4915 123.626 47.3055V42.5355H124.706V47.3055C124.706 47.9475 124.58 48.4215 124.328 48.7275C124.082 49.0335 123.659 49.1895 123.059 49.1955H122.393V48.1155ZM125.787 42.5355H126.867V49.1955H125.787V42.5355Z" fill="white"/>
</svg>
